<?xml version="1.0" standalone="no"?>
<!DOCTYPE svg PUBLIC "-//W3C//DTD SVG 20010904//EN"
 "http://www.w3.org/TR/2001/REC-SVG-20010904/DTD/svg10.dtd">
<svg version="1.0" xmlns="http://www.w3.org/2000/svg"
 width="512.000000pt" height="512.000000pt" viewBox="0 0 512.000000 512.000000"
 preserveAspectRatio="xMidYMid meet">
<metadata>
Created by potrace 1.14, written by Peter Selinger 2001-2017
</metadata>
<g transform="translate(0.000000,512.000000) scale(0.100000,-0.100000)"
fill="#000000" stroke="none">
<path d="M2368 5115 c-2 -2 -34 -6 -73 -9 -38 -3 -81 -8 -95 -11 -40 -6 -142
-25 -175 -31 -62 -11 -217 -55 -314 -89 -712 -248 -1286 -812 -1550 -1522 -78
-211 -126 -411 -148 -623 -16 -147 -8 -526 12 -640 3 -14 7 -41 10 -60 5 -29
21 -108 40 -194 21 -93 92 -296 146 -417 259 -576 719 -1038 1289 -1294 196
-88 458 -166 650 -194 41 -6 93 -13 115 -17 86 -12 412 -14 466 -3 123 25 252
117 312 220 14 24 98 222 187 439 89 217 168 409 175 425 50 112 938 2283 939
2295 1 12 -27 15 -183 15 -173 0 -184 -1 -196 -20 -7 -11 -120 -291 -251 -623
-130 -331 -240 -599 -244 -595 -4 4 -78 188 -165 408 -87 220 -172 436 -190
480 -19 44 -58 141 -87 215 l-54 135 -198 0 c-109 0 -200 -3 -202 -6 -2 -4 34
-99 80 -211 46 -111 119 -288 161 -393 43 -104 108 -264 145 -355 219 -532
300 -734 300 -747 0 -11 -193 -491 -245 -608 -7 -16 -72 -174 -145 -350 -81
-198 -140 -330 -156 -345 -24 -25 -27 -25 -192 -25 -221 0 -319 12 -524 64
-609 154 -1136 581 -1418 1149 -112 225 -192 490 -215 707 -4 33 -8 76 -11 95
-5 46 -5 328 0 360 3 14 7 52 11 85 33 323 163 671 360 965 284 424 720 743
1209 884 112 33 263 64 347 72 35 3 75 7 89 10 78 14 381 3 502 -17 31 -5 60
-9 65 -8 4 1 10 0 13 -1 8 -3 33 -8 65 -15 17 -3 38 -8 47 -11 10 -3 29 -7 42
-10 14 -2 78 -22 143 -45 65 -22 124 -41 131 -41 6 -1 12 -5 12 -10 0 -4 6 -8
13 -8 7 0 31 -9 54 -19 22 -11 46 -21 54 -23 8 -2 17 -7 20 -11 3 -4 15 -9 27
-10 11 0 20 -6 19 -12 -1 -5 8 -10 20 -9 12 0 20 -2 18 -6 -7 -12 53 -40 72
-34 12 4 14 3 6 -3 -9 -6 14 -27 80 -69 50 -32 96 -58 100 -56 5 1 6 -2 2 -7
-6 -10 34 -37 48 -33 5 1 6 -2 2 -8 -3 -5 1 -13 10 -16 9 -4 28 -18 44 -33
120 -115 161 -151 170 -151 5 0 13 -5 17 -12 5 -7 3 -8 -7 -3 -8 5 -5 -1 5
-13 13 -15 27 -21 40 -17 12 3 15 2 9 -1 -7 -3 -13 -11 -13 -18 0 -17 51 -60
72 -61 10 -1 21 -5 25 -10 5 -4 -2 -4 -14 -1 -21 7 -34 -8 -15 -16 5 -1 23
-22 40 -46 17 -24 33 -38 37 -32 3 6 11 8 16 5 5 -4 9 3 9 14 0 12 -5 20 -12
19 -6 -2 -14 5 -16 15 -2 9 1 17 7 17 6 0 8 -7 4 -15 -3 -10 0 -15 8 -13 9 2
14 -6 14 -22 0 -15 -5 -24 -12 -22 -21 4 -15 -20 16 -66 17 -26 31 -39 35 -33
4 6 2 11 -4 11 -6 0 -8 5 -4 11 11 18 24 -12 14 -32 -7 -12 -2 -25 19 -48 15
-17 31 -28 34 -24 4 3 7 1 7 -5 0 -7 -5 -12 -10 -12 -6 0 -6 -7 2 -19 9 -15
16 -17 34 -9 13 6 21 14 19 18 -3 5 2 10 10 13 9 4 12 1 9 -8 -4 -10 1 -13 21
-9 17 3 37 -3 55 -16 l29 -21 -2 21 c-1 11 -7 18 -13 16 -13 -5 -54 34 -54 50
0 5 5 1 11 -8 5 -10 15 -18 21 -18 7 0 7 4 0 13 -8 10 -6 16 9 25 10 7 19 17
19 24 0 6 -8 4 -19 -6 -12 -11 -27 -15 -39 -12 -17 6 -16 9 14 42 l33 35 21
-21 c24 -24 14 -27 -12 -3 -10 9 -18 12 -18 6 0 -5 -9 -19 -20 -31 -16 -17
-17 -22 -6 -22 8 0 19 7 24 15 5 10 15 13 25 9 9 -3 14 -10 11 -15 -3 -5 2 -9
10 -9 20 0 31 -19 18 -32 -6 -6 -8 -18 -5 -27 5 -13 3 -14 -8 -3 -10 9 -10 15
-1 24 17 17 15 25 -7 31 -20 5 -41 -9 -41 -27 0 -6 5 -5 12 2 7 7 17 12 22 12
6 0 0 -7 -12 -16 -12 -8 -22 -20 -22 -26 0 -7 6 -6 15 2 15 12 20 4 16 -22 -2
-12 13 -9 35 6 10 8 16 18 12 21 -4 4 -3 16 2 26 8 14 5 21 -12 33 -12 9 -17
16 -11 16 6 0 16 -7 23 -15 7 -9 15 -13 18 -10 3 3 -14 23 -36 46 -23 22 -47
50 -53 60 -6 11 16 -6 48 -38 40 -40 56 -62 49 -70 -5 -8 -4 -13 3 -13 21 0
25 32 6 46 -10 8 -15 14 -9 14 5 0 -3 8 -19 18 -15 10 -24 22 -20 25 3 4 -2 7
-13 8 -11 0 -14 3 -6 6 15 6 92 -73 92 -94 0 -7 9 -12 22 -10 20 2 23 -3 23
-33 0 -28 -4 -34 -18 -32 -21 4 -23 -14 -2 -22 17 -6 46 30 38 50 -3 8 0 14 5
14 6 0 9 -10 7 -23 -4 -17 0 -23 14 -23 11 0 17 5 14 13 -3 7 -9 13 -14 13 -5
0 -8 3 -8 8 3 19 -2 33 -11 27 -6 -4 -10 5 -10 19 0 28 -18 34 -38 14 -9 -9
-12 -9 -12 1 0 7 -14 26 -31 42 -17 16 -28 29 -23 29 4 0 17 -9 29 -20 13 -12
29 -18 38 -14 13 5 11 13 -16 57 -17 29 -35 55 -40 58 -5 3 -8 9 -7 13 2 11
-34 66 -43 66 -4 0 -5 -4 -2 -10 3 -6 -1 -7 -10 -4 -11 5 -14 2 -9 -12 6 -16
5 -17 -7 -6 -12 11 -10 16 11 32 19 15 21 20 8 20 -9 0 -20 5 -24 12 -5 7 -3
8 5 3 10 -6 11 -3 2 14 -7 11 -16 21 -22 21 -6 0 -7 5 -4 10 3 6 -1 13 -9 16
-9 3 -16 12 -16 20 0 7 -6 17 -13 21 -7 4 -20 20 -30 36 -10 15 -25 27 -35 28
-11 0 -12 2 -4 6 9 3 3 14 -18 34 -17 17 -36 27 -42 23 -7 -4 -8 -3 -4 5 4 6
13 8 19 4 7 -3 4 3 -7 15 -10 12 -23 19 -28 16 -4 -3 -8 -2 -7 3 4 26 -3 35
-24 31 -15 -3 -24 0 -24 8 0 7 4 11 9 8 5 -4 4 3 -3 14 -11 17 -17 19 -33 10
-17 -9 -19 -8 -8 3 14 16 16 33 2 24 -5 -3 -10 1 -10 9 0 17 -15 21 -24 7 -4
-5 0 -11 6 -14 7 -3 3 -4 -9 -4 -15 1 -19 5 -13 13 6 6 6 15 2 19 -4 5 -1 5 6
1 6 -4 12 -2 12 3 0 10 -14 15 -33 12 -5 -1 -6 3 -3 8 4 5 -11 22 -31 38 -21
15 -46 38 -56 51 -10 12 -22 20 -26 18 -4 -3 -15 6 -25 20 -11 13 -25 24 -32
24 -8 0 -14 4 -14 9 0 11 -50 44 -67 44 -6 0 -11 5 -10 11 1 6 -9 10 -23 8
-17 -1 -21 1 -12 6 10 7 10 11 -2 21 -8 7 -20 10 -25 7 -5 -4 -13 -1 -17 5 -5
8 -3 9 6 4 9 -5 11 -4 6 3 -4 7 -14 12 -22 12 -8 0 -14 5 -14 11 0 6 -7 8 -16
5 -8 -3 -13 -2 -10 2 3 5 -12 17 -32 27 -20 11 -39 22 -42 26 -16 18 -320 162
-370 174 -3 1 -12 5 -20 8 -21 10 -195 66 -222 72 -230 51 -229 51 -423 74
-64 8 -420 13 -427 6z m1042 -219 c0 -2 -8 -10 -17 -17 -16 -13 -17 -12 -4 4
13 16 21 21 21 13z m240 -56 c0 -5 -2 -10 -4 -10 -3 0 -8 5 -11 10 -3 6 -1 10
4 10 6 0 11 -4 11 -10z m70 -76 c0 -8 -19 -13 -24 -6 -3 5 1 9 9 9 8 0 15 -2
15 -3z m70 -4 c0 -5 -2 -10 -4 -10 -3 0 -8 5 -11 10 -3 6 -1 10 4 10 6 0 11
-4 11 -10z m56 -32 c19 -23 19 -23 -2 -5 -11 9 -24 14 -29 10 -4 -5 -5 -2 -1
5 9 16 10 16 32 -10z m-136 -8 c0 -5 -5 -10 -11 -10 -5 0 -7 5 -4 10 3 6 8 10
11 10 2 0 4 -4 4 -10z m54 2 c3 -5 -1 -9 -9 -9 -8 0 -12 4 -9 9 3 4 7 8 9 8 2
0 6 -4 9 -8z m36 -58 c0 -8 -19 -13 -24 -6 -3 5 1 9 9 9 8 0 15 -2 15 -3z m27
-16 c2 -17 0 -19 -7 -8 -5 8 -6 18 -4 22 8 12 10 10 11 -14z m-81 -24 c1 -9 0
-13 -4 -10 -3 4 -7 14 -8 22 -1 9 0 13 4 10 3 -4 7 -14 8 -22z m-59 -19 c0 -8
-4 -12 -9 -9 -5 3 -6 10 -3 15 9 13 12 11 12 -6z m120 0 c0 -8 -4 -12 -9 -9
-5 3 -6 10 -3 15 9 13 12 11 12 -6z m48 -5 c3 -6 -1 -7 -9 -4 -18 7 -21 14 -7
14 6 0 13 -4 16 -10z m-112 -35 c-7 -21 -12 -19 -10 4 0 11 5 18 9 15 4 -3 5
-11 1 -19z m228 -8 c-6 -8 -9 -16 -6 -19 3 -3 -3 -11 -12 -19 -16 -13 -17 -12
-4 4 7 9 10 17 6 17 -4 0 -2 7 5 15 7 8 15 15 17 15 3 0 0 -6 -6 -13z m-181
-17 c0 -5 -5 -10 -11 -10 -5 0 -7 5 -4 10 3 6 8 10 11 10 2 0 4 -4 4 -10z m40
0 c0 -5 -5 -10 -11 -10 -5 0 -7 5 -4 10 3 6 8 10 11 10 2 0 4 -4 4 -10z m97
-5 c0 -8 -4 -12 -9 -9 -5 3 -6 10 -3 15 9 13 12 11 12 -6z m-237 -16 c0 -5 -4
-9 -8 -9 -5 0 -9 7 -9 15 0 8 4 12 9 9 4 -3 8 -9 8 -15z m317 -14 c0 -8 -4
-12 -9 -9 -5 3 -6 10 -3 15 9 13 12 11 12 -6z m-177 -5 c0 -5 -5 -10 -11 -10
-5 0 -7 5 -4 10 3 6 8 10 11 10 2 0 4 -4 4 -10z m94 2 c3 -5 -1 -9 -9 -9 -8 0
-12 4 -9 9 3 4 7 8 9 8 2 0 6 -4 9 -8z m279 -17 c-3 -9 -8 -14 -10 -11 -3 3
-2 9 2 15 9 16 15 13 8 -4z m-76 -38 c1 -11 1 -18 0 -16 -2 2 -8 11 -15 20 -9
12 -9 16 1 16 7 0 14 -9 14 -20z m64 -4 c13 -16 12 -17 -3 -4 -17 13 -22 21
-14 21 2 0 10 -8 17 -17z m-191 1 c0 -8 -19 -13 -24 -6 -3 5 1 9 9 9 8 0 15
-2 15 -3z m45 -3 c3 -5 2 -12 -3 -15 -5 -3 -9 1 -9 9 0 17 3 19 12 6z m195 5
c0 -2 -8 -10 -17 -17 -16 -13 -17 -12 -4 4 13 16 21 21 21 13z m-157 -21 c-3
-9 -8 -14 -10 -11 -3 3 -2 9 2 15 9 16 15 13 8 -4z m91 -3 c3 -5 -1 -9 -9 -9
-8 0 -15 4 -15 9 0 4 4 8 9 8 6 0 12 -4 15 -8z m72 -46 c2 -14 1 -26 -3 -26
-5 0 -9 14 -9 31 -2 35 5 33 12 -5z m-160 -2 c1 -9 0 -13 -4 -10 -3 4 -7 14
-8 22 -1 9 0 13 4 10 3 -4 7 -14 8 -22z m-32 8 c2 -4 -4 -8 -14 -8 -10 0 -16
4 -14 8 3 4 9 8 14 8 5 0 11 -4 14 -8z m227 -9 c13 -16 12 -17 -3 -4 -17 13
-22 21 -14 21 2 0 10 -8 17 -17z m-152 -6 c-2 -1 -13 -9 -24 -17 -19 -14 -19
-14 -6 3 7 9 18 17 24 17 6 0 8 -1 6 -3z m81 -22 c14 -19 14 -19 -2 -6 -10 7
-18 18 -18 24 0 6 1 8 3 6 1 -2 9 -13 17 -24z m-236 -7 c-3 -4 -9 -8 -15 -8
-5 0 -9 4 -9 8 0 5 7 9 15 9 8 0 12 -4 9 -9z m154 -8 c-7 -10 -14 -17 -17 -15
-4 4 18 35 25 35 2 0 -1 -9 -8 -20z m42 5 c-5 -7 -9 -14 -7 -16 1 -2 0 -3 -2
-2 -2 2 -11 -3 -20 -9 -12 -10 -12 -7 2 8 9 11 15 23 12 26 -3 2 2 5 10 5 10
0 12 -4 5 -12z m120 11 c0 -2 -7 -7 -16 -10 -8 -3 -12 -2 -9 4 6 10 25 14 25
6z m40 -12 c-6 -6 -7 -14 -3 -17 3 -4 3 -7 0 -7 -3 0 -11 8 -16 18 -7 14 -6
18 9 18 13 0 16 -4 10 -12z m-399 -11 c13 -16 12 -17 -3 -4 -17 13 -22 21 -14
21 2 0 10 -8 17 -17z m372 -7 c4 -11 1 -13 -10 -9 -10 4 -14 2 -10 -4 3 -5 0
-10 -8 -10 -13 0 -12 4 2 19 19 22 19 22 26 4z m-127 -35 c-11 -12 -13 -21 -6
-24 6 -4 6 -5 -1 -3 -7 1 -13 10 -15 19 -1 9 2 15 6 12 5 -3 11 -1 15 5 3 5 9
10 12 10 3 0 -2 -9 -11 -19z m194 0 c0 -13 -29 -8 -34 5 -3 7 2 10 15 7 10 -3
19 -9 19 -12z m55 9 c-3 -5 -12 -10 -18 -10 -7 0 -6 4 3 10 19 12 23 12 15 0z
m-376 -3 c-2 -2 -11 -8 -20 -15 -12 -9 -16 -9 -16 1 0 7 9 14 20 14 11 1 18 1
16 0z m157 -12 c-1 -8 -5 -17 -8 -21 -5 -4 -4 16 1 34 3 9 9 -1 7 -13z m-120
-50 c0 -13 -3 -22 -7 -20 -4 3 -6 13 -4 23 1 9 -2 24 -8 32 -9 12 -9 13 3 2 8
-7 15 -23 16 -37z m241 38 c-4 -3 -2 -12 5 -20 6 -7 8 -16 4 -20 -3 -3 -6 -1
-6 6 0 7 -4 10 -8 7 -4 -2 -9 4 -9 15 -1 10 3 19 9 19 6 0 8 -3 5 -7z m76 -10
c-3 -7 -6 -13 -8 -13 -2 0 -5 6 -8 13 -3 8 1 14 8 14 7 0 11 -6 8 -14z m49 -2
c-8 -4 -13 -12 -12 -17 1 -5 -4 -10 -12 -12 -9 -2 -8 0 2 7 8 6 11 11 7 11 -5
0 -5 5 -2 10 3 6 12 10 18 10 8 0 8 -3 -1 -9z m-407 -9 c-3 -3 1 -12 7 -21 10
-12 7 -12 -8 2 -11 9 -24 14 -29 10 -4 -5 -5 -3 -2 3 3 6 13 11 22 11 8 0 13
-3 10 -5z m202 -7 c0 -8 -4 -12 -9 -9 -4 3 -8 9 -8 15 0 5 4 9 8 9 5 0 9 -7 9
-15z m-115 -12 c-6 -3 -9 -10 -5 -16 4 -7 -1 -6 -10 2 -21 17 -21 17 6 18 12
0 16 -1 9 -4z m79 -8 c-5 -5 -7 -18 -6 -27 2 -10 0 -20 -5 -23 -5 -3 -7 3 -5
12 1 10 -1 25 -6 33 -5 12 -2 16 11 16 12 0 16 -4 11 -11z m93 -9 c-3 -9 -12
-12 -22 -9 -15 6 -9 11 25 22 1 1 0 -5 -3 -13z m187 -1 c5 4 6 -2 2 -11 -4
-11 -8 -13 -11 -6 -2 7 -8 10 -13 7 -5 -4 -6 2 -2 11 4 11 8 13 11 6 2 -7 8
-10 13 -7z m-322 2 c-2 -1 -13 -9 -24 -17 -19 -14 -19 -14 -6 3 7 9 18 17 24
17 6 0 8 -1 6 -3z m162 -10 c-6 -8 -8 -16 -5 -19 3 -3 1 -9 -4 -12 -6 -3 -9 0
-8 6 2 16 15 38 23 38 3 0 0 -6 -6 -13z m70 -4 c12 -16 12 -17 -2 -6 -9 7 -19
10 -22 6 -4 -3 -7 -1 -7 5 0 17 16 15 31 -5z m49 -18 c0 -5 -5 -3 -10 5 -5 8
-10 20 -10 25 0 6 5 3 10 -5 5 -8 10 -19 10 -25z m-360 1 c-7 -7 -13 -7 -20 0
-6 6 -3 10 10 10 13 0 16 -4 10 -10z m270 -11 c-7 -8 -18 -15 -24 -15 -6 0 -2
7 8 15 25 19 32 19 16 0z m70 -13 c-6 -2 -7 -9 -4 -14 4 -6 2 -8 -4 -5 -5 4
-8 16 -5 28 4 16 8 17 14 7 5 -7 4 -14 -1 -16z m-296 10 c3 -5 -1 -9 -9 -9 -8
0 -15 4 -15 9 0 4 4 8 9 8 6 0 12 -4 15 -8z m136 2 c0 -1 -11 -9 -25 -18 -25
-16 -25 -16 -14 2 9 15 39 27 39 16z m15 -25 c-3 -12 -7 -24 -10 -27 -3 -3 -3
5 -1 19 6 30 5 29 10 29 3 0 3 -10 1 -21z m200 11 c3 -5 1 -10 -4 -10 -6 0
-11 5 -11 10 0 6 2 10 4 10 3 0 8 -4 11 -10z m-118 -15 c0 -8 -4 -12 -9 -9 -5
3 -6 10 -3 15 9 13 12 11 12 -6z m166 8 c-7 -2 -19 -2 -25 0 -7 3 -2 5 12 5
14 0 19 -2 13 -5z m-330 -16 c4 3 7 2 7 -4 0 -6 -8 -13 -18 -15 -12 -4 -18 1
-18 13 0 12 4 15 12 9 6 -6 14 -7 17 -3z m197 -2 c5 3 14 -5 20 -17 9 -20 9
-21 -2 -7 -7 9 -17 16 -23 17 -5 0 -10 5 -11 12 -2 6 -1 7 3 0 2 -5 9 -8 13
-5z m-80 -15 c6 -11 8 -20 6 -20 -3 0 -10 9 -16 20 -6 11 -8 20 -6 20 3 0 10
-9 16 -20z m160 5 c19 -22 8 -25 -12 -3 -10 10 -14 18 -9 18 5 0 14 -7 21 -15z
m30 0 c0 -8 -2 -15 -4 -15 -2 0 -6 7 -10 15 -3 8 -1 15 4 15 6 0 10 -7 10 -15z
m34 0 c-5 -11 -1 -14 12 -9 15 5 16 4 4 -4 -8 -6 -18 -8 -22 -6 -11 7 -10 34
2 34 5 0 7 -7 4 -15z m-80 -38 c1 -14 -2 -23 -7 -20 -4 3 -7 12 -5 21 2 10 -3
23 -12 30 -13 12 -12 12 4 4 11 -6 20 -21 20 -35z m-214 18 c0 -12 -19 -12
-23 0 -4 9 -1 12 9 8 7 -3 14 -7 14 -8z m126 -14 c-9 -10 -13 -21 -9 -24 3 -4
1 -7 -5 -7 -16 0 -15 16 3 33 8 8 11 18 7 22 -4 5 -1 5 6 1 11 -7 10 -11 -2
-25z m-91 9 c3 -6 -1 -7 -9 -4 -18 7 -21 14 -7 14 6 0 13 -4 16 -10z m46 -18
c-7 -2 -18 1 -23 6 -8 8 -4 9 13 5 13 -4 18 -8 10 -11z m84 8 c3 -5 1 -10 -4
-10 -6 0 -11 5 -11 10 0 6 2 10 4 10 3 0 8 -4 11 -10z m91 -7 c-2 -9 -9 -19
-17 -21 -11 -3 -11 -1 1 7 8 6 11 11 7 11 -5 0 -5 5 -2 10 9 15 14 12 11 -7z
m29 7 c3 -5 1 -10 -4 -10 -6 0 -11 5 -11 10 0 6 2 10 4 10 3 0 8 -4 11 -10z
m45 -6 c0 -8 4 -13 8 -10 4 2 14 1 22 -4 11 -7 9 -9 -8 -7 -23 1 -54 37 -32
37 5 0 10 -7 10 -16z m-274 -16 c5 -7 3 -8 -6 -3 -9 5 -10 1 -6 -16 6 -20 5
-21 -4 -6 -6 9 -8 22 -5 27 8 13 12 13 21 -2z m260 -24 c3 -16 2 -26 -1 -23
-3 4 -8 19 -11 35 -3 16 -2 26 1 23 3 -4 8 -19 11 -35z m-161 5 c11 -16 1 -19
-13 -3 -7 8 -8 14 -3 14 5 0 13 -5 16 -11z m45 -4 c0 -8 -4 -15 -8 -15 -5 0
-9 7 -9 15 0 8 4 15 9 15 4 0 8 -7 8 -15z m90 11 c0 -2 -7 -6 -15 -10 -8 -3
-15 -1 -15 4 0 6 7 10 15 10 8 0 15 -2 15 -4z m-218 -28 c-7 -7 -12 -8 -12 -2
0 6 3 14 7 17 3 4 9 5 12 2 2 -3 -1 -11 -7 -17z m184 -20 c-1 -17 -6 -22 -21
-20 -15 2 -21 -4 -22 -18 -2 -18 1 -19 13 -10 8 8 14 8 14 2 0 -13 -28 -24
-34 -13 -11 18 2 46 22 45 14 0 20 5 19 18 -1 10 -7 18 -14 18 -7 0 -13 5 -13
10 0 7 6 7 19 1 10 -6 18 -20 17 -33z m101 36 c-3 -3 -12 -4 -19 -1 -8 3 -5 6
6 6 11 1 17 -2 13 -5z m-369 -29 c-3 -3 -9 2 -12 12 -6 14 -5 15 5 6 7 -7 10
-15 7 -18z m312 5 c6 -11 7 -20 2 -20 -6 0 -12 9 -15 20 -3 11 -3 20 -1 20 2
0 8 -9 14 -20z m87 13 c-9 -2 -15 -8 -12 -13 9 -15 -14 -22 -32 -10 -16 9 -15
10 5 5 12 -4 22 -3 21 2 -3 17 2 23 19 22 16 -1 16 -2 -1 -6z m-339 -34 c3
-11 2 -11 -7 1 -10 13 -12 13 -21 0 -5 -8 -10 -10 -10 -4 0 27 31 30 38 3z
m30 1 c-7 -10 -14 -17 -17 -15 -4 4 18 35 25 35 2 0 -1 -9 -8 -20z m46 8 c-3
-4 -15 -13 -27 -18 -20 -10 -20 -10 -5 3 10 8 16 16 13 19 -3 2 2 5 10 5 8 0
12 -4 9 -9z m56 2 c0 -5 -4 -10 -10 -10 -5 0 -10 5 -10 10 0 6 5 10 10 10 6 0
10 -4 10 -10z m40 6 c0 -2 -7 -7 -16 -10 -8 -3 -12 -2 -9 4 6 10 25 14 25 6z
m-64 -34 c1 -7 0 -8 -3 -2 -2 5 -9 10 -14 10 -6 0 -8 -4 -5 -8 2 -4 0 -14 -5
-22 -8 -13 -8 2 0 38 2 9 25 -6 27 -16z m110 -10 c-17 -16 -18 -16 -5 5 7 12
15 20 18 17 3 -2 -3 -12 -13 -22z m74 18 c0 -5 8 -10 18 -11 14 0 14 -2 -3 -9
-11 -4 -30 -6 -43 -3 -14 3 -22 1 -20 -5 2 -6 -14 -20 -34 -30 -21 -11 -38
-16 -38 -12 0 5 15 14 34 21 19 7 34 17 33 23 -1 6 11 10 26 9 24 -2 27 0 17
13 -9 10 -9 14 -1 14 6 0 11 -4 11 -10z m60 0 c0 -5 -4 -10 -10 -10 -5 0 -10
5 -10 10 0 6 5 10 10 10 6 0 10 -4 10 -10z m-213 -22 c-3 -8 -6 -5 -6 6 -1 11
2 17 5 13 3 -3 4 -12 1 -19z m193 -13 c-7 -9 -15 -13 -19 -10 -3 3 1 10 9 15
21 14 24 12 10 -5z m-204 -14 c1 -6 0 -7 -2 -2 -3 6 -12 7 -20 4 -8 -3 -14 -1
-14 5 0 14 33 8 36 -7z m149 -37 c-8 -6 -11 -15 -7 -19 4 -5 1 -5 -5 -1 -18
10 -16 26 2 26 9 0 12 6 8 16 -4 11 -9 12 -16 5 -6 -6 -15 -11 -21 -11 -5 0
-1 7 10 15 17 12 20 12 32 -3 10 -14 10 -19 -3 -28z m42 -19 c-12 -9 -14 -14
-5 -23 7 -7 8 -12 4 -12 -5 0 -3 -7 4 -15 14 -17 4 -39 -15 -31 -7 2 -17 0
-23 -6 -14 -14 -52 0 -52 20 0 13 2 13 14 -3 9 -13 18 -16 32 -10 10 4 25 7
32 6 10 -2 11 2 2 18 -6 12 -7 21 -3 21 4 0 -1 7 -11 15 -13 10 -15 15 -6 15
7 0 10 3 7 7 -4 3 -2 12 4 19 7 8 7 14 -1 19 -5 3 -10 11 -10 17 0 6 10 -2 22
-17 20 -25 20 -29 5 -40z m93 40 c5 3 12 1 15 -5 4 -6 3 -10 -2 -9 -4 1 -16
-1 -26 -6 -10 -4 -21 -5 -24 -1 -4 3 1 6 11 6 9 0 15 4 11 10 -3 5 -13 6 -22
3 -15 -6 -16 -5 -3 9 13 14 16 14 23 2 5 -8 12 -12 17 -9z m-264 -10 c-3 -9
-10 -14 -15 -10 -5 3 -11 -3 -14 -12 -3 -14 -4 -13 -3 2 1 11 7 19 14 18 6 -2
12 5 12 14 0 9 3 14 6 10 4 -3 4 -13 0 -22z m202 13 c6 -51 6 -61 -5 -65 -7
-3 -13 0 -13 7 0 6 5 8 12 4 11 -7 9 10 -7 49 -4 9 -3 17 2 17 5 0 10 -6 11
-12z m-121 -28 c3 -11 9 -20 14 -20 5 0 9 -5 9 -11 0 -8 -6 -7 -16 2 -15 12
-16 11 -9 -10 5 -17 4 -22 -6 -18 -8 2 -12 11 -10 18 2 8 6 22 8 32 3 9 0 17
-6 17 -7 0 -9 -5 -6 -10 3 -6 -1 -13 -9 -16 -9 -3 -13 -10 -10 -15 3 -5 -3 -6
-13 -2 -16 6 -16 5 -4 -10 8 -10 11 -20 7 -24 -3 -3 -6 -1 -6 6 0 7 -4 10 -9
7 -5 -4 -8 1 -7 10 1 9 13 22 27 30 13 7 20 13 16 14 -12 0 2 20 15 20 5 0 12
-9 15 -20z m-177 -10 c0 -5 -2 -10 -4 -10 -3 0 -8 5 -11 10 -3 6 -1 10 4 10 6
0 11 -4 11 -10z m119 7 c-2 -1 -13 -9 -24 -17 -19 -14 -19 -14 -6 3 7 9 18 17
24 17 6 0 8 -1 6 -3z m271 -13 c0 -2 -7 -4 -15 -4 -8 0 -15 4 -15 10 0 5 7 7
15 4 8 -4 15 -8 15 -10z m-40 -14 c0 -5 -7 -7 -15 -4 -8 4 -15 8 -15 10 0 2 7
4 15 4 8 0 15 -4 15 -10z m-135 -19 c-3 -6 -11 -11 -16 -11 -5 0 -4 6 3 14 14
16 24 13 13 -3z m158 -1 c3 -11 1 -20 -4 -20 -5 0 -9 9 -9 20 0 11 2 20 4 20
2 0 6 -9 9 -20z m38 3 c12 -14 12 -16 0 -8 -11 6 -13 4 -8 -9 4 -11 3 -15 -4
-11 -6 4 -8 13 -5 20 3 8 0 16 -7 19 -8 3 -8 5 -1 5 6 1 18 -7 25 -16z m-341
-16 c-11 -11 -17 -25 -13 -30 3 -6 1 -7 -6 -3 -9 6 -9 11 0 22 6 8 9 18 5 21
-4 4 -11 1 -16 -7 -6 -8 -10 -10 -10 -4 0 16 8 22 35 22 23 0 23 -1 5 -21z
m260 13 c0 -5 -4 -10 -10 -10 -5 0 -10 5 -10 10 0 6 5 10 10 10 6 0 10 -4 10
-10z m-228 -28 c-7 -2 -10 -8 -7 -13 4 -5 -2 -6 -11 -2 -11 4 -13 8 -6 11 7 2
10 8 7 13 -4 5 2 6 11 2 11 -4 13 -8 6 -11z m58 -10 c0 -15 -2 -15 -10 -2 -13
20 -13 33 0 25 6 -3 10 -14 10 -23z m80 24 c0 -2 -6 -9 -14 -15 -11 -9 -16 -9
-22 0 -4 8 -3 9 4 5 7 -4 12 -2 12 3 0 6 5 11 10 11 6 0 10 -2 10 -4z m194
-21 c3 -8 1 -15 -4 -15 -6 0 -10 7 -10 15 0 8 2 15 4 15 2 0 6 -7 10 -15z
m-304 -25 c-23 -15 -37 -11 -18 4 10 7 16 15 14 18 -1 3 2 1 8 -4 8 -6 6 -12
-4 -18z m68 -16 c13 -9 22 -11 22 -4 0 6 4 9 9 6 5 -4 11 0 14 6 2 7 7 11 10
7 4 -3 -7 -17 -24 -32 -17 -15 -29 -20 -25 -12 3 8 -3 19 -14 25 -24 13 -43
13 -35 1 3 -6 -4 -15 -16 -21 -12 -7 -19 -8 -15 -2 3 6 0 13 -6 16 -7 3 -3 3
10 0 12 -3 22 -2 21 3 -5 28 15 31 49 7z m-90 -36 c10 -12 10 -18 1 -24 -8 -4
-9 -3 -5 5 4 6 0 14 -8 17 -9 3 -13 10 -10 16 3 5 7 8 8 6 1 -2 7 -10 14 -20z
m82 11 c0 -5 -4 -7 -10 -4 -5 3 -10 1 -10 -6 0 -7 -3 -10 -6 -6 -8 7 4 27 17
27 5 0 9 -5 9 -11z m-40 -19 c0 -5 -5 -10 -11 -10 -5 0 -7 5 -4 10 3 6 8 10
11 10 2 0 4 -4 4 -10z m45 -10 c3 -5 1 -10 -4 -10 -6 0 -11 5 -11 10 0 6 2 10
4 10 3 0 8 -4 11 -10z m-32 -20 c-3 -12 -8 -19 -11 -16 -5 6 5 36 12 36 2 0 2
-9 -1 -20z m67 10 c0 -5 -2 -10 -4 -10 -3 0 -8 5 -11 10 -3 6 -1 10 4 10 6 0
11 -4 11 -10z m-30 -20 c-18 -12 -30 -13 -30 -2 0 4 10 9 22 9 18 2 20 0 8 -7z
m35 -10 c3 -5 1 -10 -4 -10 -6 0 -11 5 -11 10 0 6 2 10 4 10 3 0 8 -4 11 -10z
m-65 -14 c0 -2 -7 -7 -16 -10 -8 -3 -12 -2 -9 4 6 10 25 14 25 6z"/>
<path d="M4605 3890 c-3 -5 -1 -10 4 -10 6 0 11 5 11 10 0 6 -2 10 -4 10 -3 0
-8 -4 -11 -10z"/>
<path d="M4785 3760 c-8 -13 5 -13 25 0 13 8 13 10 -2 10 -9 0 -20 -4 -23 -10z"/>
<path d="M4757 3703 c-11 -10 -8 -33 4 -33 5 0 7 6 3 13 -4 6 5 1 19 -12 15
-14 27 -20 27 -14 0 14 -45 54 -53 46z"/>
<path d="M4790 3700 c0 -5 5 -10 10 -10 6 0 10 5 10 10 0 6 -4 10 -10 10 -5 0
-10 -4 -10 -10z"/>
<path d="M4717 3687 c-4 -11 1 -18 14 -22 17 -6 18 -9 7 -23 -11 -14 -10 -15
7 -8 14 5 17 4 9 -4 -6 -6 -19 -8 -28 -4 -14 5 -15 9 -5 15 8 4 11 10 8 13 -3
3 -23 -10 -44 -29 -21 -20 -35 -38 -32 -41 7 -7 34 8 39 21 2 6 10 9 18 7 16
-3 30 -3 53 0 8 1 14 13 14 29 0 16 -5 25 -10 22 -5 -3 -17 4 -27 17 -14 19
-18 20 -23 7z"/>
<path d="M4519 3622 c-14 -9 -17 -18 -10 -29 9 -17 51 -26 51 -11 0 4 -5 8
-11 8 -5 0 -7 5 -4 10 3 6 2 10 -4 10 -5 0 -12 -5 -14 -10 -3 -6 -4 -5 -3 2 2
7 9 13 17 13 8 0 16 3 19 7 3 4 6 -19 6 -52 1 -37 -3 -60 -10 -60 -6 0 -5 -4
2 -9 8 -4 13 -11 13 -15 -3 -22 0 -38 6 -32 11 11 12 37 1 30 -7 -4 -7 0 -1
12 6 11 9 39 8 64 -2 61 3 74 23 58 13 -11 14 -10 10 2 -6 19 -72 21 -99 2z"/>
<path d="M4819 3624 c-6 -8 -15 -12 -19 -9 -5 3 -11 1 -15 -5 -4 -6 -11 -7
-17 -4 -7 4 -8 2 -4 -5 4 -6 16 -9 27 -6 10 4 20 2 20 -4 3 -26 4 -30 12 -37
4 -4 7 -2 7 4 0 7 5 12 12 12 9 0 9 -3 0 -12 -18 -18 -15 -33 3 -18 9 7 14 19
11 26 -3 7 2 15 11 18 9 4 13 9 10 13 -4 3 -14 0 -23 -7 -13 -11 -17 -11 -24
0 -4 7 -6 20 -3 27 5 12 7 12 14 1 5 -7 9 -9 9 -5 0 4 9 3 21 -4 15 -8 18 -14
10 -22 -14 -14 -15 -50 -1 -42 6 4 8 10 5 15 -3 5 -1 11 4 15 6 3 8 -3 6 -15
-2 -11 1 -20 6 -20 6 0 8 -4 5 -9 -9 -14 5 -42 17 -34 6 3 7 1 3 -6 -4 -6 -12
-8 -18 -5 -8 5 -9 1 -4 -12 13 -30 12 -49 -1 -46 -15 2 -17 -14 -4 -23 14 -8
43 37 31 49 -6 6 -5 16 1 28 8 15 7 23 -8 35 -10 8 -12 12 -5 8 6 -3 12 -1 12
4 0 6 -5 11 -11 11 -5 0 -7 5 -4 10 3 6 1 10 -4 10 -6 0 -10 3 -9 8 3 16 -15
62 -26 63 -6 0 -19 2 -28 4 -9 2 -22 -3 -29 -11z"/>
<path d="M4625 3611 c-3 -6 -11 -8 -18 -5 -9 3 -12 -22 -13 -96 -1 -55 2 -100
6 -100 5 0 6 10 4 23 -4 20 -4 20 5 2 5 -12 5 -25 -1 -32 -6 -8 -6 -13 -1 -13
5 0 15 6 22 13 11 10 13 10 7 0 -4 -8 -2 -13 6 -13 8 0 14 8 15 19 1 12 -5 18
-15 17 -9 0 -17 6 -17 14 0 8 -7 21 -15 28 -13 10 -12 11 5 5 l20 -6 -20 24
-20 24 21 -17 c11 -10 25 -18 30 -18 5 1 -2 10 -15 21 -20 16 -22 22 -11 29 8
5 18 6 22 4 10 -6 11 10 1 19 -3 4 -16 -1 -27 -10 -20 -17 -20 -17 -6 2 8 11
16 22 17 24 1 2 9 -2 18 -9 8 -7 15 -8 15 -3 0 15 -22 32 -35 27 -7 -3 -16 -1
-19 4 -3 5 6 8 19 6 14 -1 25 2 25 6 0 14 -18 21 -25 11z"/>
<path d="M4695 3601 c3 -6 0 -13 -8 -18 -7 -4 -18 -21 -25 -36 -7 -15 -17 -25
-22 -22 -16 10 -12 -5 10 -32 11 -14 20 -20 20 -12 0 10 3 10 12 1 18 -18 33
-15 18 3 -7 9 -19 14 -26 11 -16 -6 -27 21 -12 30 7 4 8 3 4 -4 -4 -8 0 -12
11 -12 11 0 19 8 20 19 1 11 -4 19 -10 17 -7 -1 -9 -1 -4 1 4 3 7 11 7 18 0 7
8 16 18 20 14 5 15 4 5 -6 -20 -20 -15 -34 6 -15 19 17 51 13 51 -7 0 -6 7 -2
15 9 10 13 13 14 10 3 -3 -9 1 -22 10 -29 20 -17 19 -27 -6 -40 -15 -9 -24 -8
-35 1 -12 10 -14 8 -12 -12 3 -20 -1 -24 -22 -21 -22 2 -23 1 -7 -8 9 -6 15
-15 12 -21 -4 -5 -2 -9 3 -9 5 0 15 11 22 25 7 14 16 23 18 20 3 -3 12 1 20 8
13 10 14 9 8 -2 -6 -9 -5 -12 4 -9 18 6 22 45 8 71 -7 12 -12 26 -13 31 0 9
-29 16 -67 17 -10 0 -20 4 -23 10 -4 5 -11 9 -16 9 -6 0 -8 -4 -4 -9z"/>
<path d="M4836 3598 c3 -5 10 -6 15 -3 13 9 11 12 -6 12 -8 0 -12 -4 -9 -9z"/>
<path d="M4530 3562 c0 -5 7 -13 16 -16 10 -4 14 -1 12 6 -5 15 -28 23 -28 10z"/>
<path d="M4717 3550 c-18 -26 -17 -65 3 -65 8 0 19 -4 23 -10 5 -6 6 -2 3 8
-8 25 2 41 19 27 13 -11 45 -4 45 10 0 4 -7 14 -16 21 -15 12 -16 11 -10 -9 5
-14 3 -22 -4 -22 -6 0 -9 4 -6 8 6 10 -21 52 -34 52 -5 0 -15 -9 -23 -20z m39
-12 c10 -13 15 -20 10 -16 -5 4 -15 3 -23 -3 -10 -9 -13 -8 -13 0 0 7 -5 9
-12 5 -7 -4 -8 -3 -4 4 4 6 14 8 24 5 15 -6 15 -5 3 10 -7 9 -11 17 -9 17 3 0
13 -10 24 -22z"/>
<path d="M4537 3529 c7 -7 15 -10 18 -7 3 3 -2 9 -12 12 -14 6 -15 5 -6 -5z"/>
<path d="M4845 3530 c-3 -5 -4 -14 -1 -19 4 -5 3 -11 -1 -14 -9 -4 7 0 35 9
10 3 13 2 7 -3 -14 -11 -17 -33 -5 -33 6 0 10 -5 10 -11 0 -5 -5 -7 -12 -3 -7
4 -8 3 -4 -4 5 -8 2 -10 -8 -6 -9 3 -16 2 -16 -3 0 -5 9 -9 20 -10 11 -1 20 4
20 10 0 7 4 6 11 -3 9 -12 9 -11 3 5 -6 18 -11 47 -13 84 -1 11 -6 10 -23 -5
-19 -15 -20 -16 -9 -1 8 10 9 17 3 17 -6 0 -14 -4 -17 -10z"/>
<path d="M4836 3477 c-14 -11 -16 -18 -9 -33 6 -10 8 -24 6 -31 -3 -8 3 -11
16 -8 12 2 21 -1 21 -6 0 -6 5 -7 10 -4 6 3 10 3 10 -2 1 -17 29 -45 40 -38 8
5 6 11 -6 19 -12 9 -13 13 -3 13 8 0 23 4 34 8 14 5 16 4 6 -3 -9 -7 -10 -12
-2 -16 6 -4 9 -11 6 -16 -3 -5 -1 -11 4 -14 5 -3 11 1 15 9 3 8 1 15 -5 15 -6
0 -8 9 -4 20 4 12 2 20 -5 20 -6 0 -8 5 -5 10 3 6 2 10 -3 10 -6 0 -9 7 -8 16
0 9 -5 19 -13 22 -10 3 -11 0 -5 -9 11 -17 17 -55 8 -46 -4 4 -15 0 -24 -8
-15 -13 -19 -13 -38 5 -12 12 -22 17 -22 13 0 -4 -6 -1 -12 6 -11 10 -10 15 2
24 17 13 24 37 12 37 -5 0 -16 -6 -26 -13z"/>
<path d="M4633 3450 c-1 -11 3 -20 8 -20 6 0 7 5 4 10 -3 6 -2 10 3 10 13 0
21 -23 17 -46 -2 -11 -4 -23 -4 -27 -1 -4 -10 -3 -20 3 -13 7 -22 7 -26 0 -3
-5 -1 -11 4 -11 60 -7 82 -2 60 13 -10 7 -8 8 7 4 14 -5 21 -2 21 9 0 11 -7
14 -21 9 -15 -4 -17 -3 -7 4 9 7 10 12 2 16 -18 11 -13 25 8 23 16 -1 18 -4 9
-15 -10 -11 -8 -13 7 -10 12 2 20 -3 20 -11 0 -8 6 -16 13 -19 7 -2 11 2 10
10 -2 7 5 12 15 12 13 -2 16 3 12 20 -5 17 -4 18 4 6 10 -14 16 -7 11 15 -1 6
2 6 6 2 11 -11 14 -38 3 -31 -5 3 -9 0 -9 -5 0 -13 10 -14 28 -2 10 6 9 13 -6
31 l-19 24 -26 -28 c-14 -15 -31 -25 -37 -21 -6 3 -8 10 -5 15 6 10 -20 21
-60 26 -25 3 -31 0 -32 -16z"/>
<path d="M1675 3432 c-68 -8 -198 -43 -259 -71 -271 -123 -469 -389 -503 -676
-33 -284 48 -541 233 -732 181 -186 406 -275 680 -267 290 7 542 142 701 374
37 55 83 144 83 163 0 8 -59 34 -157 68 -87 30 -163 55 -169 57 -7 2 -27 -24
-44 -57 -87 -163 -261 -261 -455 -255 -216 6 -393 137 -466 345 -33 92 -33
266 0 358 73 209 246 339 459 346 177 6 305 -52 415 -187 19 -24 44 -62 56
-85 l21 -42 37 12 c182 58 303 103 303 115 0 7 -12 36 -26 65 -119 234 -332
398 -588 454 -66 14 -252 23 -321 15z"/>
<path d="M4760 3400 c8 -5 17 -7 21 -4 4 2 6 -4 5 -13 0 -9 6 -18 14 -21 13
-5 13 -3 0 14 -14 18 -14 18 3 5 14 -11 17 -11 17 0 0 11 2 11 10 -1 6 -10 4
-20 -6 -31 -22 -25 -17 -32 10 -12 13 10 22 21 20 25 -8 12 12 17 26 6 13 -8
13 -9 -1 -5 -9 3 -16 -1 -16 -8 0 -7 8 -10 18 -8 9 3 20 0 23 -6 4 -6 3 -11
-1 -11 -5 0 -9 -9 -10 -21 -2 -17 1 -18 12 -9 8 7 12 16 10 21 -3 4 4 6 15 4
11 -2 20 1 20 7 0 7 7 3 15 -8 12 -17 12 -20 -1 -30 -12 -10 -11 -14 8 -26 19
-13 20 -15 4 -21 -11 -5 -15 -3 -10 5 4 7 3 8 -4 4 -19 -11 -14 -25 8 -23 19
1 25 10 20 32 -1 5 2 6 7 2 11 -12 11 -30 -2 -40 -6 -5 -3 -7 7 -4 12 4 16 1
13 -14 -3 -12 0 -17 7 -13 7 4 8 2 4 -5 -4 -6 -11 -9 -16 -6 -5 3 -11 1 -15
-5 -3 -5 -1 -11 4 -11 6 -1 16 -2 23 -3 6 0 12 -9 14 -19 2 -16 0 -17 -15 -5
-9 7 -6 3 7 -9 24 -24 17 -33 -8 -10 -12 10 -12 9 -2 -4 10 -13 9 -19 -2 -28
-11 -9 -13 -6 -11 18 2 24 -1 29 -17 26 -10 -2 -16 0 -13 5 3 6 0 7 -8 4 -8
-3 -20 2 -27 11 -7 8 -17 15 -23 15 -6 0 4 -11 23 -25 19 -14 29 -25 23 -25
-6 0 -16 7 -23 15 -16 20 -34 19 -26 -1 3 -8 2 -13 -2 -10 -5 3 -9 -1 -9 -9 0
-8 5 -11 11 -8 6 4 4 -2 -4 -12 -13 -17 -13 -18 0 -10 8 4 12 4 7 0 -4 -5 1
-17 10 -28 16 -17 16 -20 2 -30 -21 -16 -24 -28 -7 -39 9 -6 8 -8 -7 -6 -13 2
-19 -2 -17 -11 3 -12 0 -12 -12 -2 -13 11 -15 10 -11 -8 3 -15 0 -19 -8 -14
-7 4 -6 -2 3 -13 9 -12 9 -15 1 -7 -7 6 -21 9 -30 6 -12 -4 -13 -3 -3 5 8 5
14 13 14 17 0 4 -6 12 -14 17 -10 7 -8 8 5 4 12 -4 16 -2 11 6 -5 7 -3 8 6 3
9 -6 11 -4 5 6 -8 12 -6 12 8 0 9 -7 18 -11 18 -7 5 24 4 33 -5 45 -9 12 -8
13 4 7 8 -4 6 0 -4 8 -11 9 -16 16 -11 16 5 0 17 -7 27 -17 10 -9 21 -13 25
-9 4 3 -4 17 -17 29 l-24 22 19 -24 20 -25 -28 21 c-15 12 -37 20 -48 18 -13
-3 -17 0 -13 8 4 7 -2 3 -15 -7 -16 -15 -24 -17 -33 -8 -10 10 -7 17 12 35
l24 22 -18 -23 c-11 -12 -16 -25 -13 -29 8 -7 57 35 57 49 0 5 -10 -1 -22 -14
-13 -13 -17 -17 -10 -8 16 22 15 33 -4 26 -10 -4 -13 -2 -8 7 6 9 4 9 -7 1
-18 -13 -45 -12 -42 3 1 6 -3 10 -10 9 -7 0 -12 2 -12 6 0 4 -9 14 -20 23 -11
9 -13 14 -5 10 8 -4 4 3 -10 14 -20 17 -21 20 -5 14 18 -6 18 -5 6 10 -7 9
-18 14 -24 10 -5 -3 -7 -1 -3 5 3 6 2 13 -4 17 -6 4 -8 10 -5 15 3 5 -1 24
-10 41 -9 17 -12 28 -6 25 6 -4 9 -1 5 7 -2 7 -11 14 -19 14 -17 0 -20 -13 -5
-22 6 -4 8 -11 5 -16 -4 -5 -2 -9 4 -9 5 0 10 -8 10 -17 0 -25 5 -44 19 -69 6
-12 8 -25 4 -29 -4 -5 -1 -5 6 -1 9 6 12 2 10 -10 -2 -11 2 -18 10 -16 6 1 12
-2 12 -8 0 -5 -8 -10 -17 -11 -14 0 -13 -2 5 -9 26 -11 30 -22 5 -14 -16 5
-16 4 0 -6 24 -15 34 -5 16 16 -13 16 -12 16 7 4 11 -7 21 -19 21 -26 0 -7 -5
-10 -10 -7 -6 4 -7 1 -2 -6 6 -10 3 -11 -14 -2 -17 10 -21 9 -21 -4 0 -9 7
-18 15 -21 8 -4 15 -10 15 -16 0 -5 -6 -6 -12 -2 -9 5 -9 2 1 -9 11 -14 11
-17 0 -17 -9 0 -10 -3 -4 -8 11 -8 15 -22 20 -67 8 -73 28 -106 49 -85 16 16
29 11 16 -5 -7 -9 -21 -13 -31 -10 -15 5 -18 0 -17 -27 0 -18 5 -39 11 -45 6
-9 6 -13 -3 -13 -8 0 -9 -4 -3 -12 6 -7 9 -26 8 -41 -1 -19 1 -25 9 -17 23 23
28 8 5 -17 -13 -14 -18 -23 -11 -19 14 8 17 -10 2 -19 -6 -4 -2 -22 11 -46 19
-38 19 -42 4 -65 -15 -23 -10 -30 19 -25 5 1 6 -5 2 -14 -3 -9 -2 -13 4 -10 6
3 10 2 10 -4 0 -5 -4 -12 -8 -15 -10 -6 -34 9 -32 20 1 5 -4 10 -12 12 -8 2
-9 0 -3 -5 13 -10 19 -47 7 -39 -17 10 -9 -24 10 -41 18 -16 18 -16 12 0 -3
10 -3 17 2 16 27 -5 36 1 24 15 -9 12 -8 15 9 13 12 -1 21 -5 21 -9 0 -12 -52
-63 -61 -61 -8 3 -11 -5 -8 -23 0 -4 -5 -10 -11 -14 -9 -5 -9 -9 -1 -14 6 -4
11 -2 11 3 0 21 3 26 22 39 15 11 22 11 34 1 13 -10 13 -14 -1 -29 -8 -9 -15
-23 -15 -31 0 -8 6 -3 13 11 8 14 19 24 26 22 7 -1 19 3 27 9 8 7 18 9 21 5 4
-4 1 -12 -7 -17 -12 -9 -11 -10 4 -5 13 5 17 2 12 -9 -8 -23 2 -18 15 8 6 12
8 19 4 15 -4 -4 -17 4 -27 18 -18 22 -19 27 -5 42 8 9 13 22 11 27 -3 6 5 11
16 12 22 2 20 -7 -8 -40 -14 -16 -14 -19 1 -34 9 -10 17 -12 17 -6 0 6 -6 13
-12 16 -7 2 -10 8 -6 12 4 4 14 2 22 -4 8 -7 22 -11 32 -9 9 2 19 -2 21 -8 2
-7 -6 -10 -22 -9 -14 2 -25 -1 -25 -7 0 -5 9 -6 20 -3 21 7 23 3 22 -65 0 -19
2 -27 5 -17 2 9 9 15 14 12 5 -4 9 -2 9 4 0 5 -6 12 -12 15 -10 5 -10 7 0 12
6 3 12 10 12 15 0 6 -4 7 -10 4 -5 -3 -10 1 -10 10 0 10 4 13 13 8 6 -4 4 5
-6 21 -23 35 -16 45 10 13 16 -21 21 -23 37 -12 18 14 50 9 41 -5 -3 -5 -1
-11 3 -14 5 -3 8 7 7 22 -1 15 2 35 7 45 5 9 5 17 1 16 -22 -4 -43 2 -43 12 0
5 5 7 12 3 7 -4 8 -3 4 4 -4 7 -3 12 3 12 5 0 11 -5 13 -12 3 -8 6 -7 10 3 5
13 -1 15 -30 14 -21 -1 -40 -3 -43 -4 -8 -2 -5 -64 4 -78 5 -7 4 -13 -1 -13
-33 0 -38 85 -6 104 10 6 32 11 49 11 30 0 30 0 30 61 1 41 -3 60 -10 58 -6
-3 -11 5 -11 16 0 12 5 19 12 16 9 -3 10 3 5 22 -3 15 -6 44 -6 64 1 20 -3 34
-7 32 -12 -7 -5 40 7 48 6 5 6 8 -1 8 -6 0 -10 15 -9 34 1 30 -1 34 -21 30
-15 -3 -22 0 -20 11 3 18 16 32 16 17 0 -7 8 -12 18 -12 10 0 13 3 6 8 -6 4
-10 16 -8 26 1 11 0 24 -3 30 -4 6 -8 24 -10 41 -2 16 -8 32 -14 33 -6 3 -5
10 3 20 7 9 8 13 2 9 -8 -4 -12 4 -13 26 -1 62 -2 67 -13 67 -5 0 -8 6 -5 13
2 6 0 23 -6 37 -5 14 -9 33 -8 44 2 10 -2 15 -7 12 -6 -4 -13 -2 -17 4 -3 5
-1 10 4 10 6 0 11 5 11 11 0 5 -5 7 -10 4 -7 -4 -9 3 -6 20 4 22 2 24 -9 15
-10 -8 -15 -8 -21 2 -5 7 -9 16 -9 20 0 3 -4 10 -9 15 -5 4 -6 3 -3 -3 4 -7 0
-17 -8 -24 -13 -10 -20 -8 -40 14 -13 14 -29 27 -35 27 -13 2 -29 6 -32 8 -2
2 -21 4 -42 6 -24 2 -34 0 -26 -5z m227 -115 c0 -8 -4 -12 -9 -9 -5 3 -6 10
-3 15 9 13 12 11 12 -6z m-12 -165 c8 7 16 10 16 6 1 -3 3 -15 4 -26 1 -11 3
-23 4 -27 0 -3 10 2 21 12 11 10 23 15 27 12 3 -4 1 -7 -7 -7 -10 0 -10 -3 0
-15 7 -8 9 -15 5 -15 -4 0 -2 -7 5 -15 7 -8 9 -15 5 -15 -4 0 -2 -7 5 -15 6
-8 9 -19 6 -24 -4 -5 -2 -12 3 -16 5 -3 9 -14 8 -25 -1 -10 -4 -17 -7 -15 -3
2 -14 -3 -25 -11 -10 -8 -13 -14 -6 -14 7 0 10 -4 7 -8 -2 -4 0 -14 5 -22 7
-12 11 -13 18 -2 7 11 9 11 14 -1 7 -20 -17 -29 -33 -14 -10 9 -11 9 -6 0 8
-15 -10 -18 -19 -3 -3 6 -1 10 4 10 6 0 11 5 11 11 0 5 -4 8 -9 4 -5 -3 -13 0
-17 6 -5 8 -3 9 6 4 10 -6 12 -4 7 8 -4 10 0 20 11 26 12 7 13 10 3 11 -11 0
-11 3 0 16 7 9 14 26 16 37 2 20 2 20 -8 4 -10 -17 -29 -15 -29 4 0 6 4 8 9 4
5 -3 13 0 17 6 5 8 3 9 -6 4 -9 -6 -11 -4 -5 5 5 8 4 11 -3 6 -6 -3 -13 -2
-17 4 -4 6 -11 7 -17 4 -6 -4 -8 -2 -4 4 3 6 1 14 -5 18 -8 5 -9 3 -4 -7 8
-12 6 -12 -8 0 -10 8 -20 11 -24 7 -3 -3 -1 -6 7 -6 10 0 10 -4 -1 -17 -8 -9
-9 -14 -3 -10 15 9 38 -19 28 -34 -5 -8 -3 -9 6 -4 8 5 4 -6 -9 -23 -22 -31
-40 -45 -25 -19 4 6 -2 4 -13 -5 -11 -10 -24 -18 -29 -18 -5 1 1 9 14 20 13
11 18 21 12 25 -5 3 -10 1 -10 -5 0 -6 -5 -8 -12 -4 -7 5 -8 3 -3 -6 5 -8 4
-11 -3 -6 -7 4 -10 -1 -7 -14 2 -11 -1 -20 -8 -20 -8 0 -8 -3 1 -12 7 -7 12
-17 12 -23 0 -5 -5 -2 -10 7 -6 10 -19 15 -30 13 -11 -2 -20 0 -20 6 0 5 -4 9
-9 9 -13 0 -8 -25 8 -44 16 -19 1 -22 -18 -3 -11 10 -12 9 -6 -2 5 -9 4 -12
-3 -7 -8 5 -10 1 -5 -9 4 -12 8 -13 13 -5 5 9 9 9 14 1 7 -11 -6 -15 -33 -12
-7 2 -10 -2 -6 -8 3 -6 0 -11 -7 -11 -9 0 -9 -3 2 -10 8 -5 10 -10 4 -10 -6 0
-10 -14 -9 -32 1 -20 6 -32 13 -30 7 1 12 -2 12 -8 0 -13 -11 -12 -30 3 -9 7
-15 21 -15 32 0 11 -3 25 -6 30 -4 6 -7 23 -7 39 0 15 4 23 7 17 5 -7 15 -3
30 13 24 25 12 48 -14 26 -20 -17 -33 9 -40 80 -1 19 -4 36 -5 38 -6 6 -6 29
2 44 6 12 2 22 -14 34 -14 10 -16 14 -6 11 16 -6 43 15 33 24 -2 3 7 5 20 5
23 0 24 -1 8 -18 -15 -17 -15 -20 -1 -34 10 -10 21 -13 30 -8 14 9 62 14 53 6
-2 -2 1 -14 7 -26 18 -33 19 -50 2 -36 -10 9 -17 8 -31 -5 -22 -23 -23 -70 -1
-70 9 0 20 -4 24 -8 15 -15 24 -6 20 18 -3 15 0 24 7 22 7 -1 11 3 10 9 -1 7
5 11 15 10 11 -1 16 5 14 17 -2 10 2 25 9 33 9 11 8 18 -2 30 -7 9 -14 32 -14
50 -1 32 0 33 17 18 14 -14 20 -14 33 -4z m30 -95 c6 -1 9 -7 7 -14 -4 -18 18
-42 32 -34 6 3 3 -2 -6 -13 -9 -10 -17 -22 -18 -26 -2 -20 -13 -38 -22 -38 -6
0 -8 7 -5 15 4 8 2 17 -4 20 -5 4 -9 3 -8 -2 3 -13 -12 -43 -20 -39 -4 3 -13
0 -21 -5 -13 -8 -13 -10 0 -18 8 -5 17 -8 21 -5 4 2 7 -5 6 -16 -2 -24 -12
-26 -21 -5 -5 13 -10 14 -27 5 -19 -10 -20 -10 -10 9 6 11 8 27 5 35 -3 9 -1
16 6 16 6 0 8 -5 4 -12 -4 -7 -3 -8 5 -4 6 4 9 11 6 16 -3 5 -1 11 5 15 5 3
10 1 10 -4 0 -6 5 -11 12 -11 6 0 9 3 5 6 -3 4 5 21 19 39 l24 32 -22 29 c-13
15 -16 24 -8 19 8 -5 20 -10 25 -10z m10 -154 c-9 -15 20 -31 47 -26 23 5 25
2 23 -33 -1 -20 1 -41 5 -47 13 -19 6 -98 -10 -103 -13 -5 -13 -3 -1 11 12 16
8 22 -12 18 -5 -1 -7 4 -4 11 2 7 10 12 17 10 10 -2 10 1 -1 14 -12 16 -12 17
1 10 8 -4 7 -1 -3 7 -15 13 -17 19 -7 37 6 12 9 24 6 28 -3 3 -6 0 -6 -7 0 -7
-5 -9 -11 -6 -6 5 -4 12 8 21 17 12 16 13 -7 12 -40 -1 -52 1 -45 11 3 5 1 13
-5 16 -6 4 -10 3 -9 -2 4 -25 -3 -25 -16 1 -18 34 -11 50 16 36 11 -6 17 -15
14 -19z m-124 2 c1 -7 2 -18 3 -25 1 -15 36 -20 36 -5 0 7 5 4 11 -5 6 -12 19
-16 39 -13 17 2 30 0 30 -5 0 -5 9 -7 20 -5 11 2 18 0 15 -5 -3 -5 -1 -11 4
-15 6 -3 8 -19 6 -35 -2 -17 1 -30 7 -30 7 0 6 -5 -2 -15 -14 -17 -4 -38 13
-29 9 5 9 4 0 -6 -6 -7 -9 -20 -6 -29 5 -13 2 -12 -16 3 -16 15 -18 21 -9 28
10 6 10 8 -1 8 -10 0 -11 3 -2 14 8 10 9 16 1 21 -5 3 -10 11 -10 16 0 6 6 7
13 3 8 -5 8 -3 -2 9 -7 9 -17 14 -22 11 -5 -3 -9 -1 -9 4 0 17 13 22 28 9 13
-10 14 -9 2 10 -13 20 -15 20 -26 5 -7 -9 -16 -14 -20 -9 -4 4 -2 7 4 7 16 0
15 17 -2 23 -9 4 -12 -2 -10 -18 1 -18 -3 -23 -17 -22 -19 1 -27 17 -9 17 6 0
10 5 10 11 0 8 -4 8 -14 0 -12 -10 -17 -8 -26 10 -8 15 -14 18 -19 10 -11 -16
-35 13 -26 31 4 7 -1 4 -9 -6 -11 -14 -13 -23 -5 -32 6 -7 6 -14 1 -18 -14 -9
-24 23 -13 42 7 12 5 22 -4 32 -13 14 -11 16 10 16 14 0 26 -6 26 -13z m19
-68 c0 4 6 2 14 -5 8 -6 12 -18 9 -25 -3 -10 1 -13 16 -10 12 2 19 0 16 -6 -4
-5 -2 -9 4 -9 5 0 13 5 16 10 5 8 11 8 19 1 7 -6 17 -7 21 -3 5 4 5 1 1 -6 -4
-7 -3 -19 4 -27 17 -20 -8 -31 -28 -11 -11 10 -12 16 -4 16 7 0 12 4 12 8 0 5
-6 9 -14 9 -8 0 -13 -8 -11 -18 3 -12 -2 -17 -16 -16 -19 1 -25 12 -11 20 4 2
2 2 -5 1 -6 -2 -19 8 -27 22 -11 16 -13 24 -5 24 7 0 9 3 6 6 -4 4 -13 1 -22
-6 -12 -10 -15 -10 -15 1 0 11 -2 11 -10 -1 -6 -9 -10 -10 -10 -3 0 6 5 15 10
18 8 5 7 12 -2 23 -9 12 -6 11 10 -2 12 -11 22 -16 22 -11z m-55 -15 c9 -17
20 -28 25 -25 17 10 11 -12 -7 -26 -15 -12 -16 -12 -10 3 3 10 3 17 -1 17 -4
-1 -9 0 -12 1 -19 7 -40 7 -40 -1 0 -8 14 -13 32 -10 4 0 6 -8 5 -19 -1 -11
-6 -20 -12 -20 -6 0 -7 -3 0 -8 16 -11 18 -35 2 -29 -8 3 -21 -3 -31 -14 -19
-23 -21 -36 -3 -20 8 6 17 8 20 4 4 -3 7 0 7 7 0 17 13 4 16 -16 2 -10 -3 -13
-14 -10 -9 3 -24 1 -32 -4 -12 -8 -12 -10 -1 -10 8 0 11 -3 8 -6 -9 -10 25
-65 38 -61 5 3 9 12 9 21 -1 9 3 17 10 18 6 0 16 2 21 3 6 2 16 3 24 4 11 1
10 5 -5 16 -10 8 -14 15 -7 15 13 0 43 -27 43 -40 0 -4 -8 -7 -17 -6 -12 1
-17 -6 -16 -17 1 -12 -4 -17 -14 -13 -13 6 -73 -19 -73 -30 0 -2 9 0 20 6 14
8 20 8 20 0 0 -6 -7 -13 -15 -16 -12 -5 -10 -10 8 -25 21 -18 21 -19 2 -17
-23 3 -47 50 -39 76 3 9 -2 6 -10 -8 -17 -28 -22 -19 -6 11 8 14 6 28 -10 58
-13 26 -16 42 -9 46 6 4 8 13 5 20 -6 16 13 35 29 29 8 -3 12 3 11 18 -1 13
-7 22 -13 21 -17 -3 -6 66 12 79 14 11 13 11 30 -22z m60 -40 c-3 -4 2 -11 11
-14 8 -3 12 -10 9 -16 -7 -11 -5 -11 35 -15 34 -3 61 -15 55 -25 -5 -8 60 -70
73 -70 4 0 8 -22 8 -50 0 -49 -1 -49 -27 -45 -15 3 -31 0 -34 -5 -4 -6 -11 -8
-16 -5 -13 9 -11 25 4 21 6 -1 8 -1 3 2 -4 2 -2 8 5 12 8 5 18 2 26 -8 12 -15
12 -15 6 3 -6 18 -5 19 12 5 18 -15 18 -14 1 13 -15 22 -16 30 -6 42 9 10 9
15 1 15 -6 0 -11 -5 -11 -12 0 -6 -3 -8 -7 -4 -8 7 -9 12 -12 38 0 7 -8 3 -17
-8 -15 -19 -15 -19 -10 1 3 11 -2 31 -10 45 -12 20 -14 21 -9 4 4 -14 1 -21
-10 -21 -11 0 -14 7 -9 21 4 17 3 18 -5 6 -10 -13 -15 -8 -12 13 0 4 -2 6 -6
5 -5 -1 -19 2 -32 6 -19 6 -21 10 -10 18 10 6 7 7 -10 3 -17 -5 -22 -4 -16 5
5 9 4 11 -4 6 -6 -4 -9 -12 -6 -17 4 -5 0 -9 -7 -9 -9 0 -9 -3 2 -10 17 -11 9
-13 -14 -4 -14 5 -12 11 13 34 16 16 26 32 23 36 -4 4 -1 4 6 0 7 -4 10 -11 7
-16z m23 -60 c19 -12 30 -25 26 -31 -5 -8 -10 -6 -16 4 -5 10 -15 14 -25 10
-10 -4 -14 -2 -9 5 3 6 -2 15 -11 21 -10 6 -13 11 -8 11 6 0 25 -9 43 -20z
m-33 -10 c-2 -3 1 -12 6 -20 7 -12 11 -13 18 -2 7 11 9 11 14 -2 4 -9 13 -13
22 -10 8 3 15 1 15 -5 0 -11 -12 -15 -40 -12 -11 1 -10 -1 3 -9 10 -6 14 -16
10 -23 -4 -7 0 -6 10 2 22 17 22 3 1 -20 -9 -10 -16 -30 -16 -44 0 -19 -4 -23
-11 -16 -7 7 -15 7 -24 0 -9 -8 -13 -8 -13 0 0 6 7 14 15 17 8 4 15 10 15 16
0 5 -4 6 -10 3 -5 -3 -10 -1 -10 5 0 6 8 10 17 8 24 -4 26 40 3 47 -10 3 -24
13 -32 22 -9 12 -9 15 -1 9 9 -5 11 -2 6 9 -4 13 -8 14 -13 4 -5 -7 -6 -18 -3
-26 3 -7 0 -13 -6 -13 -6 0 -11 5 -11 11 0 5 -4 8 -8 5 -5 -3 -8 8 -8 23 0 24
4 28 27 28 16 0 26 -3 24 -7z m91 -47 c-6 -17 -5 -17 7 -1 12 15 14 14 14 -13
0 -16 -3 -25 -7 -19 -4 6 -12 0 -18 -15 -7 -15 -10 -31 -7 -36 4 -5 2 -9 -4
-9 -6 0 -7 -8 -4 -17 6 -16 5 -17 -11 -3 -11 8 -14 16 -7 18 6 2 8 8 5 13 -3
6 2 19 11 29 9 10 14 23 11 28 -3 6 -3 17 0 26 8 22 18 20 10 -1z m94 7 c0 -5
-5 -10 -11 -10 -5 0 -7 5 -4 10 3 6 8 10 11 10 2 0 4 -4 4 -10z m-197 -40 c9
-10 9 -11 0 -6 -7 4 -25 0 -40 -8 -16 -8 -22 -15 -15 -16 6 0 12 -5 12 -11 0
-15 -18 -2 -31 23 -10 18 -8 19 13 14 22 -7 22 -6 -2 8 -25 14 -25 15 13 12
21 -2 44 -9 50 -16z m154 14 c-3 -4 0 -16 8 -28 8 -11 15 -25 15 -31 0 -5 -5
-2 -11 7 -10 17 -39 14 -39 -4 0 -6 6 -5 15 2 9 7 15 8 15 2 0 -5 -7 -12 -15
-16 -16 -6 -45 2 -45 13 0 10 17 33 24 32 17 -3 26 0 25 7 -2 13 1 22 8 22 3
0 3 -3 0 -6z m-157 -94 c0 -11 -4 -20 -10 -20 -5 0 -10 9 -10 20 0 11 5 20 10
20 6 0 10 -9 10 -20z m122 5 c0 -8 1 -21 2 -27 1 -7 -5 -12 -13 -10 -12 3 -12
0 -2 -11 13 -16 11 -38 -4 -49 -21 -16 -27 -7 -12 16 14 20 14 25 2 30 -11 4
-11 11 -2 35 12 33 26 41 29 16z m-72 -26 c0 -6 -5 -7 -11 -4 -5 4 -19 -1 -30
-11 -19 -17 -20 -17 -37 0 -16 17 -16 18 4 12 11 -3 29 0 39 8 20 15 35 12 35
-5z m30 1 c0 -5 -5 -10 -12 -10 -6 0 -4 -6 6 -13 18 -13 13 -47 -7 -47 -6 0
-2 -7 9 -15 19 -15 19 -16 0 -13 -25 4 -31 23 -13 39 12 12 12 15 0 24 -8 6
-11 18 -7 28 7 18 24 23 24 7z m-40 -25 c0 -8 -3 -14 -7 -14 -5 1 -14 1 -22 0
-11 -1 -11 -4 0 -17 12 -15 11 -16 -8 -10 -29 9 -39 -11 -17 -35 24 -27 6 -44
-24 -23 -12 8 -22 19 -22 25 0 11 79 89 91 89 5 0 9 -7 9 -15z m134 -32 c-2
-29 0 -34 7 -20 13 23 28 22 26 -2 -1 -12 -9 -18 -24 -18 -23 0 -25 2 -25 37
0 33 2 40 11 40 4 0 7 -17 5 -37z m-254 -1 c0 -4 -9 -8 -21 -9 -17 -2 -18 1
-9 12 12 14 30 12 30 -3z m80 -22 c0 -5 -4 -10 -10 -10 -5 0 -10 5 -10 10 0 6
5 10 10 10 6 0 10 -4 10 -10z"/>
<path d="M4935 3093 c1 -22 6 -27 26 -28 14 0 34 -7 43 -15 23 -18 51 -23 37
-7 -9 11 -11 18 -11 33 0 4 -6 1 -14 -5 -17 -14 -35 5 -31 32 3 15 1 16 -11 6
-10 -8 -18 -9 -27 0 -11 9 -14 5 -12 -16z m42 -8 c0 -6 -8 -11 -17 -11 -9 0
-17 5 -17 11 0 6 8 11 17 11 9 0 17 -5 17 -11z m50 -30 c0 -8 -4 -12 -9 -9 -5
3 -6 10 -3 15 9 13 12 11 12 -6z"/>
<path d="M4755 3090 c-17 -18 -17 -20 -1 -26 12 -5 14 -9 6 -14 -15 -10 -20
-42 -7 -57 5 -7 6 -13 2 -13 -4 0 -2 -7 5 -15 10 -12 10 -15 0 -15 -8 0 -10
-7 -5 -17 6 -15 10 -32 14 -52 1 -2 10 4 21 14 11 10 20 13 20 7 0 -7 4 -12 9
-12 8 0 8 28 1 38 -11 12 -2 52 15 72 12 14 21 32 21 40 -1 17 -25 21 -43 7
-8 -6 -21 -2 -37 10 -23 19 -24 21 -8 36 9 10 14 17 11 17 -3 0 -14 -9 -24
-20z m57 -54 c43 27 47 -7 6 -42 -16 -13 -24 -24 -16 -24 10 0 9 -3 -2 -10
-13 -8 -13 -10 -1 -10 11 0 9 -4 -5 -15 -14 -11 -15 -14 -3 -9 10 3 20 0 25
-7 5 -8 3 -10 -5 -5 -7 5 -18 2 -24 -6 -7 -7 -11 -11 -10 -9 1 2 -2 12 -7 22
-7 12 -7 20 0 24 6 4 7 12 3 18 -4 7 -8 15 -9 20 -1 4 -3 9 -4 12 -14 28 6 61
26 44 7 -6 19 -7 26 -3z"/>
<path d="M4769 3039 c-6 -31 -6 -40 2 -45 5 -3 7 -9 4 -14 -3 -5 0 -12 6 -16
7 -4 9 -3 6 3 -3 5 7 20 24 32 16 12 27 27 23 32 -4 6 -11 6 -20 -2 -11 -9
-17 -9 -29 1 -8 7 -15 11 -16 9z m49 -18 c15 12 16 11 2 -3 -22 -24 -42 -26
-45 -5 -3 15 -1 16 11 6 11 -9 18 -8 32 2z"/>
<path d="M4944 2994 c2 -23 25 -57 27 -38 0 5 2 19 5 30 2 15 -2 23 -15 27
-14 3 -17 -1 -17 -19z"/>
<path d="M5056 2953 c-6 -14 -5 -15 5 -6 7 7 10 15 7 18 -3 3 -9 -2 -12 -12z"/>
<path d="M4787 2832 c-20 -22 -22 -42 -5 -42 6 0 8 3 5 7 -4 3 0 17 8 30 18
28 14 30 -8 5z"/>
<path d="M5005 2970 c-3 -5 -3 -10 2 -10 4 0 2 -4 -5 -9 -11 -6 -10 -10 4 -15
10 -4 15 -4 11 0 -4 4 -2 13 4 20 6 8 6 14 0 18 -5 4 -12 2 -16 -4z"/>
<path d="M4981 2883 c-1 -17 16 -25 25 -12 4 7 3 9 -4 5 -5 -3 -13 0 -15 6 -4
9 -6 10 -6 1z"/>
<path d="M4824 2778 c-4 -7 -4 -10 1 -6 4 4 14 3 22 -4 11 -8 12 -7 7 6 -7 19
-20 21 -30 4z"/>
<path d="M4852 2394 c10 -10 20 -16 22 -13 3 3 -5 11 -17 18 -21 13 -21 12 -5
-5z"/>
<path d="M4713 3393 c7 -11 -29 -40 -44 -36 -5 2 -4 -18 4 -74 2 -13 14 -34
27 -48 13 -14 20 -25 17 -25 -4 0 -1 -10 8 -23 8 -13 12 -27 8 -30 -3 -4 -1
-7 5 -7 16 0 9 39 -9 51 -12 7 -12 9 0 9 10 0 8 6 -7 21 -12 11 -20 24 -17 30
4 5 1 9 -5 9 -7 0 -9 8 -5 21 5 14 3 19 -3 15 -6 -3 -14 -1 -18 5 -5 8 -3 9 6
4 10 -6 12 -4 7 9 -5 11 -3 15 5 10 8 -5 9 -2 5 10 -4 9 -3 15 2 11 5 -3 12 1
14 7 4 10 6 9 6 -1 1 -11 5 -10 20 3 14 13 21 14 27 5 4 -7 3 -10 -3 -6 -6 4
-16 0 -23 -8 -7 -8 -16 -12 -21 -9 -5 3 -9 0 -9 -5 0 -14 27 -14 35 -1 4 6 11
8 16 5 5 -4 9 0 9 7 1 9 5 7 14 -4 12 -17 14 -16 32 4 18 22 18 22 0 8 -16
-13 -20 -12 -37 9 -10 12 -23 20 -29 16 -6 -4 -18 -1 -27 7 -11 8 -14 9 -10 1z"/>
<path d="M4744 3329 c-3 -5 -4 -9 -2 -10 30 -7 45 -10 56 -11 11 -1 16 -12 14
-30 -1 -3 5 -9 13 -12 9 -3 12 0 8 10 -3 7 0 14 7 14 6 0 8 5 5 10 -4 6 -11 7
-17 4 -6 -4 -8 -2 -5 4 9 13 43 8 40 -7 -2 -6 3 -11 10 -11 8 0 7 -3 -3 -9 -8
-6 -18 -7 -22 -5 -4 3 -5 -2 -2 -11 6 -14 8 -14 24 0 11 10 20 12 24 6 4 -5 2
-12 -4 -16 -5 -3 -10 -11 -10 -17 0 -6 6 -6 15 2 9 7 14 19 11 27 -4 9 -1 11
6 7 7 -5 8 -2 3 7 -5 8 -4 11 0 6 15 -13 13 -51 -4 -65 -15 -12 -15 -13 1 -9
9 3 19 3 23 -1 4 -4 11 -7 16 -7 5 0 9 -3 9 -7 0 -7 -6 -10 -12 -7 -2 1 -17 2
-34 4 -20 1 -31 -3 -31 -11 0 -7 5 -10 10 -7 6 3 7 1 3 -6 -4 -6 -12 -9 -17
-6 -5 4 -9 2 -9 -4 0 -5 5 -11 12 -13 7 -3 5 -7 -6 -11 -9 -4 -15 -3 -11 3 3
5 -4 7 -15 5 -11 -2 -18 0 -15 6 4 5 10 7 15 4 4 -3 10 2 14 10 3 8 1 17 -4
20 -6 4 -10 1 -10 -5 0 -7 -7 -10 -14 -7 -11 4 -13 1 -9 -11 6 -15 5 -15 -11
1 -20 19 -40 13 -32 -10 3 -8 1 -11 -4 -8 -16 10 -4 50 13 44 17 -6 45 -3 41
3 -4 5 -12 7 -20 4 -7 -3 -16 0 -20 6 -4 6 -3 8 3 5 5 -3 10 0 10 8 0 14 -10
19 -29 16 -5 0 -8 4 -8 10 0 5 -4 7 -10 4 -5 -3 -10 -2 -10 2 0 5 -10 9 -21
10 -21 2 -21 2 2 -23 13 -14 23 -27 22 -30 -2 -2 -3 -5 -2 -6 3 -12 10 -45 11
-54 1 -7 8 -11 17 -9 9 1 15 8 13 14 -2 9 4 8 20 -1 13 -7 26 -12 30 -13 15 0
20 -16 9 -29 -13 -16 -6 -23 24 -22 14 1 20 8 21 26 1 14 2 28 4 33 1 4 3 11
4 16 3 21 17 23 36 6 11 -10 23 -15 27 -12 3 4 12 2 20 -5 11 -8 12 -7 7 6 -4
11 -13 15 -27 10 -17 -5 -18 -4 -6 9 8 8 17 13 20 11 4 -2 12 2 18 10 9 11 8
15 -6 21 -10 5 -23 7 -30 6 -18 -2 -26 18 -13 34 7 8 7 15 1 19 -6 4 -8 13 -5
21 4 8 11 12 17 8 5 -3 7 -1 4 5 -9 14 -32 10 -56 -12 -19 -17 -39 -7 -26 14
3 6 0 10 -7 10 -9 0 -9 3 2 10 11 7 8 8 -13 6 -15 -1 -33 -8 -39 -14 -8 -8
-17 -8 -32 0 -28 16 -45 18 -52 7z m206 -63 c0 -3 -4 -8 -10 -11 -5 -3 -10 -1
-10 4 0 6 5 11 10 11 6 0 10 -2 10 -4z m-166 -39 c3 3 6 2 6 -4 0 -19 -27 -36
-36 -22 -4 8 -3 9 4 5 19 -11 14 5 -5 21 -16 13 -16 13 3 4 12 -6 24 -7 28 -4z
m204 -32 c-3 -3 -9 2 -12 12 -6 14 -5 15 5 6 7 -7 10 -15 7 -18z m-98 -100 c0
-2 -9 -3 -19 -2 -11 0 -18 5 -15 9 4 6 34 0 34 -7z"/>
<path d="M4704 3306 c2 -16 10 -33 19 -38 10 -5 17 -6 17 -3 0 3 18 -4 40 -15
26 -13 40 -16 40 -9 0 7 3 9 6 6 4 -4 2 -13 -5 -21 -9 -11 -8 -15 6 -21 10 -5
20 -9 23 -9 3 -1 11 -5 18 -9 8 -6 12 -4 10 5 -2 7 4 12 12 10 8 -2 12 0 7 4
-4 4 1 17 10 28 18 21 18 21 -4 3 -25 -22 -42 -6 -22 21 13 16 12 16 -6 0 -13
-11 -26 -14 -34 -9 -7 5 -23 6 -35 4 -12 -3 -17 -1 -11 4 23 19 13 39 -17 34
-5 0 -8 3 -8 7 0 5 -6 9 -12 9 -23 1 -43 8 -50 18 -4 5 -6 -3 -4 -19z m32 -21
c1 -9 -4 -11 -14 -7 -10 4 -12 7 -4 10 7 2 9 9 5 15 -3 7 -2 8 2 4 5 -4 10
-14 11 -22z m34 -7 c0 -9 4 -8 10 2 5 8 10 10 10 4 0 -16 -10 -23 -26 -17 -16
6 -19 23 -4 23 6 0 10 -6 10 -12z m106 -66 c-11 -11 -36 -11 -43 0 -4 7 -1 8
7 3 10 -6 12 -4 7 9 -6 14 -3 15 14 5 11 -6 18 -13 15 -17z"/>
<path d="M4768 2557 c-3 -19 -2 -25 4 -19 6 6 8 18 6 28 -3 14 -5 12 -10 -9z"/>
<path d="M4757 2391 c-4 -17 -3 -21 5 -13 5 5 8 16 6 23 -3 8 -7 3 -11 -10z"/>
<path d="M5059 2373 c-1 -5 -1 -12 0 -17 1 -5 -5 -6 -14 -3 -8 4 -15 2 -15 -4
0 -6 8 -9 17 -7 9 2 15 7 14 12 -2 5 3 13 11 17 10 7 10 9 1 9 -7 0 -14 -3
-14 -7z"/>
<path d="M4805 2360 c-3 -5 -2 -10 4 -10 5 0 13 5 16 10 3 6 2 10 -4 10 -5 0
-13 -4 -16 -10z"/>
<path d="M5085 2351 c5 -9 -32 -27 -46 -23 -15 3 -5 -49 13 -68 11 -12 18 -23
17 -24 -2 -2 -13 -8 -24 -14 -16 -9 -17 -11 -4 -12 9 0 22 7 29 15 10 13 10
19 -4 33 -17 20 -12 32 13 32 14 0 14 -2 1 -10 -13 -8 -12 -10 3 -10 9 0 17 5
17 10 0 17 -29 23 -45 10 -8 -7 -15 -9 -15 -4 0 13 20 41 20 29 0 -6 3 -6 8 1
4 6 15 15 26 21 16 9 17 11 2 16 -10 4 -14 3 -11 -2z"/>
<path d="M4910 2298 c-25 -26 -44 -52 -42 -58 1 -5 -2 -10 -8 -10 -5 0 -10 -5
-10 -11 0 -8 6 -7 16 2 15 12 16 11 10 -11 -6 -21 -5 -22 4 -7 8 12 8 22 2 30
-7 9 2 24 33 55 24 24 47 43 52 42 4 -1 8 3 10 10 1 7 0 6 -4 -1 -3 -6 -8 -7
-12 -2 -3 4 -26 -13 -51 -39z"/>
<path d="M4793 2320 c1 -11 5 -20 9 -20 3 0 6 9 5 20 -1 11 -5 20 -9 20 -3 0
-6 -9 -5 -20z"/>
<path d="M4846 2325 c-3 -8 -1 -15 3 -15 5 0 11 7 15 15 3 8 1 15 -3 15 -5 0
-11 -7 -15 -15z"/>
<path d="M4883 2324 c9 -9 -44 -54 -56 -47 -6 4 -3 10 9 15 19 8 19 8 0 5 -27
-3 -30 -20 -5 -35 12 -8 19 -10 17 -5 -3 4 3 16 14 26 10 9 18 14 18 10 0 -10
20 19 20 30 0 4 -5 7 -12 7 -6 0 -9 -3 -5 -6z"/>
<path d="M5090 2320 c-9 -6 -10 -10 -3 -10 6 0 15 5 18 10 8 12 4 12 -15 0z"/>
<path d="M4770 2311 c0 -7 -4 -10 -8 -7 -4 2 -8 -6 -8 -20 0 -13 4 -24 9 -24
5 0 7 6 4 14 -3 7 0 19 6 25 6 6 8 14 4 18 -4 3 -7 1 -7 -6z"/>
<path d="M4946 2295 c-11 -8 -16 -15 -10 -16 5 0 0 -4 -11 -9 -17 -7 -17 -9
-3 -9 10 -1 22 8 28 19 6 11 15 18 21 15 5 -4 9 -1 9 4 0 15 -11 13 -34 -4z"/>
<path d="M4780 2279 c0 -5 5 -7 10 -4 6 3 10 8 10 11 0 2 -4 4 -10 4 -5 0 -10
-5 -10 -11z"/>
<path d="M5010 2273 c0 -6 5 -15 10 -18 6 -4 8 -11 5 -16 -4 -5 -1 -9 4 -9 15
0 14 13 -4 36 -8 10 -15 14 -15 7z"/>
<path d="M4793 2253 c9 -2 17 -9 17 -14 0 -6 5 -7 10 -4 6 3 10 1 10 -6 0 -7
3 -9 7 -5 10 10 -26 36 -46 35 -13 -1 -12 -2 2 -6z"/>
<path d="M4952 2240 c0 -14 2 -19 5 -12 2 6 2 18 0 25 -3 6 -5 1 -5 -13z"/>
<path d="M4980 2245 c9 -10 9 -15 1 -15 -6 0 -11 -5 -11 -10 0 -6 8 -5 20 2
11 7 20 16 20 21 0 4 -4 5 -10 2 -5 -3 -10 -1 -10 4 0 6 -5 11 -11 11 -8 0 -8
-5 1 -15z"/>
<path d="M4745 2240 c-3 -6 1 -7 9 -4 18 7 21 14 7 14 -6 0 -13 -4 -16 -10z"/>
<path d="M4900 2240 c0 -5 5 -10 10 -10 6 0 10 5 10 10 0 6 -4 10 -10 10 -5 0
-10 -4 -10 -10z"/>
<path d="M4757 2223 c-10 -10 -8 -33 3 -33 5 0 7 7 4 15 -5 11 -2 13 12 8 12
-4 15 -3 10 5 -8 13 -19 15 -29 5z"/>
<path d="M4903 2208 c-19 -25 -24 -43 -6 -22 10 12 25 24 33 27 13 5 12 6 -1
6 -9 1 -21 -5 -26 -11z"/>
<path d="M5008 2202 c-4 -12 -12 -22 -18 -22 -9 0 -9 5 1 18 12 15 12 16 -2 5
-10 -8 -19 -9 -25 -3 -6 6 -14 2 -22 -10 -7 -11 -8 -20 -3 -20 5 0 11 6 14 13
3 9 8 9 21 -2 15 -12 19 -12 33 1 8 9 13 22 11 29 -3 8 -7 5 -10 -9z"/>
<path d="M5074 2209 c-3 -6 -2 -15 3 -20 5 -5 9 -1 9 11 0 23 -2 24 -12 9z"/>
<path d="M4836 2198 c5 -8 2 -9 -9 -5 -24 9 -21 0 4 -14 13 -6 19 -7 15 -1 -3
6 -1 12 6 14 7 3 5 7 -6 11 -11 5 -15 3 -10 -5z"/>
<path d="M4774 2175 c-9 -14 -14 -28 -10 -32 3 -3 6 -1 6 6 0 7 4 9 10 6 6 -4
7 1 3 12 -6 16 -5 16 10 4 11 -9 17 -10 17 -2 0 6 -5 11 -11 11 -5 0 -7 5 -4
10 14 22 -6 8 -21 -15z"/>
<path d="M5030 2189 c0 -5 5 -7 10 -4 6 3 10 1 10 -4 0 -6 5 -11 11 -11 8 0 8
5 -1 15 -14 17 -30 20 -30 4z"/>
<path d="M4733 2171 c4 -28 12 -34 14 -11 1 11 -2 22 -8 25 -5 4 -8 -3 -6 -14z"/>
<path d="M4860 2165 c0 -8 4 -15 10 -15 5 0 7 7 4 15 -4 8 -8 15 -10 15 -2 0
-4 -7 -4 -15z"/>
<path d="M4827 2159 c7 -7 15 -10 18 -7 3 3 -2 9 -12 12 -14 6 -15 5 -6 -5z"/>
<path d="M4919 2141 c11 -15 18 -31 14 -34 -3 -4 2 -9 11 -13 9 -3 13 -10 10
-15 -3 -5 2 -6 12 -2 14 5 13 8 -7 19 -13 7 -23 16 -23 21 2 14 -19 53 -28 53
-5 0 0 -13 11 -29z"/>
<path d="M4949 2159 c-12 -7 -11 -9 3 -9 9 0 18 -6 21 -12 2 -7 7 -11 10 -8 3
3 0 13 -7 22 -8 11 -17 14 -27 7z"/>
<path d="M5010 2161 c0 -5 7 -12 16 -15 21 -8 24 -8 24 5 0 5 -4 7 -10 4 -5
-3 -10 -1 -10 4 0 6 -4 11 -10 11 -5 0 -10 -4 -10 -9z"/>
<path d="M4793 2137 c-22 -12 -22 -13 -3 -25 13 -8 21 -8 26 -1 4 8 9 7 15 -2
5 -8 9 -9 9 -3 0 5 -6 18 -12 27 -11 13 -17 14 -35 4z m22 -16 c-3 -6 -11 -8
-17 -5 -6 4 -5 9 3 15 16 10 23 4 14 -10z"/>
<path d="M4880 2139 c-13 -9 -12 -10 3 -5 20 6 22 -5 5 -22 -13 -13 -32 -16
-24 -4 2 4 0 14 -5 22 -7 12 -8 10 -6 -7 5 -33 15 -38 36 -19 15 13 20 14 24
4 3 -7 6 -8 6 -2 1 5 -5 18 -11 27 -10 13 -17 14 -28 6z"/>
<path d="M5001 2137 c-2 -17 20 -47 30 -42 5 4 9 0 9 -8 0 -27 -14 -27 -31 0
-16 24 -18 25 -16 6 0 -12 4 -20 8 -17 4 2 9 -3 13 -11 9 -23 38 -6 34 21 -2
14 5 30 17 39 11 9 13 13 5 9 -8 -4 -24 -14 -34 -23 -18 -15 -19 -15 -13 2 4
10 3 16 -2 12 -5 -3 -12 1 -14 7 -3 7 -6 9 -6 5z"/>
<path d="M4734 2098 c-3 -5 -3 -12 0 -15 3 -4 6 -2 6 3 0 5 9 10 20 11 11 1
19 -3 17 -9 -1 -6 5 -13 13 -15 12 -4 12 -3 2 5 -8 5 -13 13 -13 18 2 12 -38
14 -45 2z"/>
<path d="M4810 2080 c0 -5 5 -10 10 -10 6 0 10 5 10 10 0 6 -4 10 -10 10 -5 0
-10 -4 -10 -10z"/>
<path d="M4876 2075 c-38 -29 -29 -74 9 -49 14 9 22 20 19 25 -3 5 4 9 15 9
12 0 20 -5 19 -11 -2 -6 4 -14 12 -16 12 -4 12 -3 2 5 -8 5 -13 13 -13 18 1 5
-9 9 -21 9 -13 0 -22 -5 -21 -11 1 -5 -7 -16 -18 -22 -17 -11 -20 -10 -17 5 2
10 14 26 28 35 14 10 21 18 15 18 -5 -1 -19 -7 -29 -15z"/>
<path d="M4756 2067 c3 -10 9 -15 12 -12 3 3 0 11 -7 18 -10 9 -11 8 -5 -6z"/>
<path d="M4714 2047 l-19 -22 24 20 c21 18 24 18 18 3 -4 -10 -2 -18 3 -18 12
0 13 27 1 34 -4 3 -17 -4 -27 -17z"/>
<path d="M4964 2059 c-5 -8 -3 -9 5 -5 8 6 11 2 9 -10 -2 -11 -12 -24 -23 -31
-11 -7 -15 -12 -10 -12 19 -1 39 17 42 38 3 23 -12 37 -23 20z"/>
<path d="M4784 2045 c-10 -8 -14 -15 -9 -16 6 0 -1 -5 -15 -10 l-25 -8 25 2
c14 1 24 8 23 15 -2 6 4 12 12 12 8 0 15 5 15 10 0 13 -3 13 -26 -5z"/>
<path d="M4831 2044 c0 -11 3 -14 6 -6 3 7 2 16 -1 19 -3 4 -6 -2 -5 -13z"/>
<path d="M5001 2034 c0 -11 3 -14 6 -6 3 7 2 16 -1 19 -3 4 -6 -2 -5 -13z"/>
<path d="M5030 2035 c0 -5 5 -17 10 -25 5 -8 10 -10 10 -5 0 6 -5 17 -10 25
-5 8 -10 11 -10 5z"/>
<path d="M4814 2022 c4 -7 0 -12 -11 -13 -17 0 -17 -1 0 -8 10 -4 18 -11 17
-16 0 -6 6 -11 14 -13 9 -2 16 1 16 7 0 6 -7 8 -15 5 -10 -4 -13 0 -10 15 2
11 -1 24 -7 27 -7 4 -8 2 -4 -4z"/>
<path d="M4910 2020 c0 -5 5 -10 10 -10 6 0 10 5 10 10 0 6 -4 10 -10 10 -5 0
-10 -4 -10 -10z"/>
<path d="M4710 2011 c0 -6 4 -12 8 -15 5 -3 9 1 9 9 0 8 -4 15 -9 15 -4 0 -8
-4 -8 -9z"/>
<path d="M4875 2000 c-3 -5 -2 -10 4 -10 5 0 13 5 16 10 3 6 2 10 -4 10 -5 0
-13 -4 -16 -10z"/>
<path d="M5010 2000 c0 -5 5 -10 10 -10 6 0 10 5 10 10 0 6 -4 10 -10 10 -5 0
-10 -4 -10 -10z"/>
<path d="M4921 1993 c-1 -7 -6 -12 -13 -10 -6 1 -13 -7 -15 -18 -2 -16 -1 -16
5 -4 4 9 15 15 24 13 10 -1 21 3 25 8 3 6 1 8 -5 4 -5 -3 -13 0 -15 6 -4 10
-6 10 -6 1z"/>
<path d="M4748 1983 c7 -3 16 -2 19 1 4 3 -2 6 -13 5 -11 0 -14 -3 -6 -6z"/>
<path d="M4960 1986 c0 -2 7 -7 16 -10 8 -3 12 -2 9 4 -6 10 -25 14 -25 6z"/>
<path d="M5035 1979 c-4 -6 -5 -12 -2 -15 2 -3 7 2 10 11 7 17 1 20 -8 4z"/>
<path d="M4862 1960 c0 -14 2 -19 5 -12 2 6 2 18 0 25 -3 6 -5 1 -5 -13z"/>
<path d="M4996 1965 c-3 -8 -1 -15 4 -15 6 0 10 7 10 15 0 8 -2 15 -4 15 -2 0
-6 -7 -10 -15z"/>
<path d="M4736 1955 c4 -8 8 -15 10 -15 2 0 4 7 4 15 0 8 -4 15 -10 15 -5 0
-7 -7 -4 -15z"/>
<path d="M4770 1955 c0 -8 2 -15 4 -15 2 0 6 7 10 15 3 8 1 15 -4 15 -6 0 -10
-7 -10 -15z"/>
<path d="M4700 1946 c0 -2 7 -6 15 -10 8 -3 15 -1 15 4 0 6 -7 10 -15 10 -8 0
-15 -2 -15 -4z"/>
<path d="M4790 1939 c0 -5 5 -7 10 -4 6 3 10 8 10 11 0 2 -4 4 -10 4 -5 0 -10
-5 -10 -11z"/>
<path d="M4820 1946 c0 -2 7 -6 15 -10 8 -3 15 -1 15 4 0 6 -7 10 -15 10 -8 0
-15 -2 -15 -4z"/>
<path d="M4910 1940 c0 -5 7 -7 15 -4 8 4 15 8 15 10 0 2 -7 4 -15 4 -8 0 -15
-4 -15 -10z"/>
<path d="M4956 1938 c3 -5 8 -7 12 -4 3 3 11 -2 19 -12 13 -16 14 -16 5 2 -5
11 -17 21 -26 22 -9 1 -13 -2 -10 -8z"/>
<path d="M4893 1921 c2 -11 7 -24 12 -28 4 -5 5 -3 2 4 -4 6 -3 13 2 15 5 1 3
9 -5 16 -12 11 -13 9 -11 -7z"/>
<path d="M4690 1920 c0 -5 5 -10 10 -10 6 0 10 5 10 10 0 6 -4 10 -10 10 -5 0
-10 -4 -10 -10z"/>
<path d="M4750 1918 c0 -4 4 -8 9 -8 6 0 12 4 15 8 3 5 -1 9 -9 9 -8 0 -15 -4
-15 -9z"/>
<path d="M4810 1920 c0 -5 5 -10 10 -10 6 0 10 5 10 10 0 6 -4 10 -10 10 -5 0
-10 -4 -10 -10z"/>
<path d="M4942 1916 c7 -8 15 -12 17 -11 5 6 -10 25 -20 25 -5 0 -4 -6 3 -14z"/>
<path d="M5014 1919 c-3 -6 -1 -16 5 -22 9 -9 10 -7 5 7 -5 13 -4 17 4 12 7
-4 12 -2 12 3 0 14 -17 14 -26 0z"/>
<path d="M4670 1900 c0 -5 5 -10 11 -10 5 0 7 5 4 10 -3 6 -8 10 -11 10 -2 0
-4 -4 -4 -10z"/>
<path d="M4736 1897 c3 -10 9 -15 12 -12 3 3 0 11 -7 18 -10 9 -11 8 -5 -6z"/>
<path d="M4790 1900 c0 -6 7 -10 15 -10 8 0 15 2 15 4 0 2 -7 6 -15 10 -8 3
-15 1 -15 -4z"/>
<path d="M4835 1900 c-3 -5 -1 -10 4 -10 6 0 11 5 11 10 0 6 -2 10 -4 10 -3 0
-8 -4 -11 -10z"/>
<path d="M4974 1902 c3 -5 0 -13 -6 -15 -9 -4 -10 -6 -1 -6 17 -1 25 16 12 25
-7 4 -9 3 -5 -4z"/>
<path d="M4708 1893 c6 -2 9 -10 6 -15 -4 -7 -2 -8 5 -4 13 9 5 26 -12 25 -9
0 -8 -2 1 -6z"/>
<path d="M4762 1880 c-7 -11 -8 -20 -3 -20 9 0 24 30 18 36 -1 2 -8 -6 -15
-16z"/>
<path d="M4864 1890 c1 -7 6 -12 11 -12 6 -1 16 -8 23 -17 11 -14 11 -13 2 7
-6 12 -15 20 -20 17 -4 -3 -11 0 -13 5 -4 7 -5 6 -3 0z"/>
<path d="M4915 1881 c-6 -11 13 -26 22 -17 4 3 1 6 -6 6 -7 0 -9 5 -6 10 3 6
4 10 1 10 -3 0 -7 -4 -11 -9z"/>
<path d="M4995 1879 c-4 -6 -5 -12 -2 -15 2 -3 7 2 10 11 7 17 1 20 -8 4z"/>
<path d="M4856 1857 c3 -10 9 -15 12 -12 3 3 0 11 -7 18 -10 9 -11 8 -5 -6z"/>
<path d="M4681 1844 c0 -11 3 -14 6 -6 3 7 2 16 -1 19 -3 4 -6 -2 -5 -13z"/>
<path d="M4797 1853 c-13 -12 -7 -23 11 -22 10 0 12 3 4 6 -6 2 -10 9 -6 14 6
10 0 12 -9 2z"/>
<path d="M4730 1840 c0 -5 5 -10 10 -10 6 0 10 5 10 10 0 6 -4 10 -10 10 -5 0
-10 -4 -10 -10z"/>
<path d="M4836 1833 c-6 -14 -5 -15 5 -6 7 7 10 15 7 18 -3 3 -9 -2 -12 -12z"/>
<path d="M4930 1839 c0 -5 5 -7 10 -4 6 3 10 8 10 11 0 2 -4 4 -10 4 -5 0 -10
-5 -10 -11z"/>
<path d="M4855 1821 c-7 -12 12 -24 25 -16 6 3 10 12 9 18 0 9 -2 9 -6 0 -2
-7 -9 -13 -14 -13 -6 0 -7 5 -4 10 3 6 4 10 1 10 -3 0 -7 -4 -11 -9z"/>
<path d="M4950 1820 c0 -5 7 -7 15 -4 8 4 15 8 15 10 0 2 -7 4 -15 4 -8 0 -15
-4 -15 -10z"/>
<path d="M4900 1814 c0 -13 18 -39 24 -34 2 3 -2 14 -10 24 -8 11 -14 16 -14
10z"/>
<path d="M4970 1806 c0 -2 7 -7 16 -10 8 -3 12 -2 9 4 -6 10 -25 14 -25 6z"/>
<path d="M4796 1778 c5 -7 2 -9 -8 -6 -8 4 -15 0 -15 -7 0 -10 5 -11 19 -4 16
9 17 29 2 29 -3 0 -2 -5 2 -12z"/>
<path d="M4970 1780 c0 -5 5 -10 11 -10 5 0 7 5 4 10 -3 6 -8 10 -11 10 -2 0
-4 -4 -4 -10z"/>
<path d="M4656 1758 c3 -5 10 -6 15 -3 13 9 11 12 -6 12 -8 0 -12 -4 -9 -9z"/>
<path d="M4886 1758 c3 -5 9 -7 12 -4 3 3 12 0 21 -6 13 -10 14 -10 4 2 -15
16 -46 23 -37 8z"/>
<path d="M4954 1762 c3 -5 0 -13 -6 -15 -9 -4 -10 -6 -1 -6 17 -1 25 16 12 25
-7 4 -9 3 -5 -4z"/>
<path d="M4627 1747 c-3 -7 3 -13 14 -13 13 0 15 3 7 13 -6 7 -12 13 -13 13
-2 0 -5 -6 -8 -13z"/>
<path d="M4870 1743 c5 -2 8 -9 5 -13 -3 -5 5 -14 17 -20 22 -11 22 -11 3 5
-11 9 -19 19 -17 23 2 3 -1 7 -7 8 -7 2 -8 1 -1 -3z"/>
<path d="M4734 1718 c-3 -5 -3 -12 0 -15 3 -4 6 -1 6 5 0 6 10 9 21 7 12 -3
19 -1 15 2 -11 11 -35 12 -42 1z"/>
<path d="M4672 1695 c15 -16 20 -17 30 -6 11 11 10 13 0 7 -7 -4 -21 -2 -30 5
-15 12 -15 11 0 -6z"/>
<path d="M4821 1684 c0 -11 3 -14 6 -6 3 7 2 16 -1 19 -3 4 -6 -2 -5 -13z"/>
<path d="M4734 1682 c4 -3 14 -7 22 -8 9 -1 13 0 10 4 -4 3 -14 7 -22 8 -9 1
-13 0 -10 -4z"/>
<path d="M4896 1682 c-3 -5 1 -9 9 -9 8 0 12 4 9 9 -3 4 -7 8 -9 8 -2 0 -6 -4
-9 -8z"/>
<path d="M4625 1659 c-3 -4 2 -6 10 -5 21 3 28 13 10 13 -9 0 -18 -4 -20 -8z"/>
<path d="M4706 1658 c3 -5 10 -6 15 -3 13 9 11 12 -6 12 -8 0 -12 -4 -9 -9z"/>
<path d="M4579 1658 c-5 -18 -6 -38 -1 -34 7 8 12 36 6 36 -2 0 -4 -1 -5 -2z"/>
<path d="M4729 1643 c-13 -16 -12 -17 4 -4 16 13 21 21 13 21 -2 0 -10 -8 -17
-17z"/>
<path d="M4891 1653 c-1 -17 16 -25 25 -12 4 7 3 9 -4 5 -5 -3 -13 0 -15 6 -4
9 -6 10 -6 1z"/>
<path d="M4659 1633 c-13 -17 -13 -17 6 -3 11 8 22 16 24 17 2 2 0 3 -6 3 -6
0 -17 -8 -24 -17z"/>
<path d="M4786 1640 c5 -8 9 -18 9 -22 0 -3 3 -9 7 -13 3 -4 5 0 4 9 -1 9 -8
22 -16 29 -10 10 -11 9 -4 -3z"/>
<path d="M4747 1627 c-3 -7 3 -13 14 -13 13 0 15 3 7 13 -6 7 -12 13 -13 13
-2 0 -5 -6 -8 -13z"/>
<path d="M4832 1615 c15 -16 20 -17 30 -6 11 11 10 13 0 7 -7 -4 -21 -2 -30 5
-15 12 -15 11 0 -6z"/>
<path d="M4715 1611 c-3 -5 -2 -12 3 -15 5 -3 9 1 9 9 0 17 -3 19 -12 6z"/>
<path d="M4550 1576 c7 -7 13 -7 20 0 6 6 3 10 -10 10 -13 0 -16 -4 -10 -10z"/>
<path d="M4593 1567 c-1 -11 -1 -18 0 -16 2 2 8 11 15 20 9 12 9 16 -1 16 -7
0 -14 -9 -14 -20z"/>
<path d="M4677 1568 c19 -21 31 -25 14 -5 -6 8 -9 16 -6 19 3 2 -2 5 -10 5
-13 0 -13 -3 2 -19z"/>
<path d="M4840 1575 c-7 -9 -11 -17 -9 -20 3 -2 10 5 17 15 14 24 10 26 -8 5z"/>
<path d="M4775 1569 c-4 -6 -5 -12 -2 -15 2 -3 7 2 10 11 7 17 1 20 -8 4z"/>
<path d="M4890 1576 c0 -2 8 -10 18 -17 15 -13 16 -12 3 4 -13 16 -21 21 -21
13z"/>
<path d="M4636 1562 c-3 -5 1 -9 9 -9 8 0 12 4 9 9 -3 4 -7 8 -9 8 -2 0 -6 -4
-9 -8z"/>
<path d="M4874 1539 c-2 -33 4 -33 11 -1 2 12 1 24 -3 26 -4 2 -8 -9 -8 -25z"/>
<path d="M4550 1556 c0 -2 8 -10 18 -17 15 -13 16 -12 3 4 -13 16 -21 21 -21
13z"/>
<path d="M4623 1525 c17 -19 17 -19 35 0 16 18 16 18 0 6 -15 -11 -21 -11 -35
0 -17 12 -17 12 0 -6z"/>
<path d="M4702 1524 c10 -10 20 -16 22 -13 3 3 -5 11 -17 18 -21 13 -21 12 -5
-5z"/>
<path d="M4799 1493 c-13 -16 -12 -17 4 -4 16 13 21 21 13 21 -2 0 -10 -8 -17
-17z"/>
<path d="M4635 1489 c-4 -6 -5 -12 -2 -15 2 -3 7 2 10 11 7 17 1 20 -8 4z"/>
<path d="M4856 1487 c3 -10 9 -15 12 -12 3 3 0 11 -7 18 -10 9 -11 8 -5 -6z"/>
<path d="M4516 1478 c3 -5 10 -6 15 -3 13 9 11 12 -6 12 -8 0 -12 -4 -9 -9z"/>
<path d="M4576 1478 c3 -5 10 -6 15 -3 13 9 11 12 -6 12 -8 0 -12 -4 -9 -9z"/>
<path d="M4830 1483 c0 -6 8 -17 18 -24 16 -13 16 -13 2 6 -8 11 -16 22 -17
24 -2 2 -3 0 -3 -6z"/>
<path d="M4507 1459 c7 -7 15 -10 18 -7 3 3 -2 9 -12 12 -14 6 -15 5 -6 -5z"/>
<path d="M4759 1453 c-13 -16 -12 -17 4 -4 16 13 21 21 13 21 -2 0 -10 -8 -17
-17z"/>
<path d="M4676 1447 c3 -10 9 -15 12 -12 3 3 0 11 -7 18 -10 9 -11 8 -5 -6z"/>
<path d="M4460 1425 c0 -2 6 -8 13 -14 10 -8 14 -7 14 2 0 8 -6 14 -14 14 -7
0 -13 -1 -13 -2z"/>
<path d="M4509 1403 c-13 -16 -12 -17 4 -4 9 7 17 15 17 17 0 8 -8 3 -21 -13z"/>
<path d="M4546 1382 c-3 -5 1 -9 9 -9 8 0 12 4 9 9 -3 4 -7 8 -9 8 -2 0 -6 -4
-9 -8z"/>
<path d="M4587 1379 c7 -7 15 -10 18 -7 3 3 -2 9 -12 12 -14 6 -15 5 -6 -5z"/>
<path d="M4636 1381 c-3 -5 2 -15 12 -22 15 -12 16 -12 5 2 -7 9 -10 19 -6 22
3 4 4 7 0 7 -3 0 -8 -4 -11 -9z"/>
<path d="M4785 1359 c-3 -4 2 -6 10 -5 21 3 28 13 10 13 -9 0 -18 -4 -20 -8z"/>
<path d="M4750 1337 c0 -2 6 -10 14 -16 11 -9 16 -9 22 1 4 7 4 10 -1 6 -4 -4
-14 -3 -22 3 -7 6 -13 9 -13 6z"/>
<path d="M4399 1273 c-13 -16 -12 -17 4 -4 9 7 17 15 17 17 0 8 -8 3 -21 -13z"/>
<path d="M4635 1249 c-4 -6 -5 -12 -2 -15 2 -3 7 2 10 11 7 17 1 20 -8 4z"/>
<path d="M4559 1233 c-13 -16 -12 -17 4 -4 9 7 17 15 17 17 0 8 -8 3 -21 -13z"/>
<path d="M4370 1219 c0 -5 5 -7 10 -4 6 3 10 8 10 11 0 2 -4 4 -10 4 -5 0 -10
-5 -10 -11z"/>
<path d="M4455 1220 c-3 -5 -1 -10 4 -10 6 0 11 5 11 10 0 6 -2 10 -4 10 -3 0
-8 -4 -11 -10z"/>
<path d="M4695 1220 c-3 -5 -1 -10 4 -10 6 0 11 5 11 10 0 6 -2 10 -4 10 -3 0
-8 -4 -11 -10z"/>
<path d="M4417 1155 c-4 -8 -3 -16 1 -19 4 -3 9 4 9 15 2 23 -3 25 -10 4z"/>
<path d="M4534 1142 c4 -3 14 -7 22 -8 9 -1 13 0 10 4 -4 3 -14 7 -22 8 -9 1
-13 0 -10 -4z"/>
<path d="M4490 1120 c0 -5 5 -10 11 -10 5 0 7 5 4 10 -3 6 -8 10 -11 10 -2 0
-4 -4 -4 -10z"/>
<path d="M4276 1087 c3 -10 9 -15 12 -12 3 3 0 11 -7 18 -10 9 -11 8 -5 -6z"/>
<path d="M4575 1059 c-3 -4 2 -6 10 -5 21 3 28 13 10 13 -9 0 -18 -4 -20 -8z"/>
<path d="M4520 1040 c-9 -6 -10 -10 -3 -10 6 0 15 5 18 10 8 12 4 12 -15 0z"/>
<path d="M4436 953 c-6 -14 -5 -15 5 -6 7 7 10 15 7 18 -3 3 -9 -2 -12 -12z"/>
<path d="M4476 898 c3 -5 10 -6 15 -3 13 9 11 12 -6 12 -8 0 -12 -4 -9 -9z"/>
<path d="M4114 880 c0 -13 4 -16 10 -10 7 7 7 13 0 20 -6 6 -10 3 -10 -10z"/>
<path d="M4390 886 c0 -2 7 -7 16 -10 8 -3 12 -2 9 4 -6 10 -25 14 -25 6z"/>
</g>
</svg>
